%TF.GenerationSoftware,KiCad,Pcbnew,(6.0.1)*%
%TF.CreationDate,2022-08-29T10:58:40+03:00*%
%TF.ProjectId,flight controller,666c6967-6874-4206-936f-6e74726f6c6c,rev?*%
%TF.SameCoordinates,Original*%
%TF.FileFunction,Paste,Top*%
%TF.FilePolarity,Positive*%
%FSLAX46Y46*%
G04 Gerber Fmt 4.6, Leading zero omitted, Abs format (unit mm)*
G04 Created by KiCad (PCBNEW (6.0.1)) date 2022-08-29 10:58:40*
%MOMM*%
%LPD*%
G01*
G04 APERTURE LIST*
G04 Aperture macros list*
%AMRoundRect*
0 Rectangle with rounded corners*
0 $1 Rounding radius*
0 $2 $3 $4 $5 $6 $7 $8 $9 X,Y pos of 4 corners*
0 Add a 4 corners polygon primitive as box body*
4,1,4,$2,$3,$4,$5,$6,$7,$8,$9,$2,$3,0*
0 Add four circle primitives for the rounded corners*
1,1,$1+$1,$2,$3*
1,1,$1+$1,$4,$5*
1,1,$1+$1,$6,$7*
1,1,$1+$1,$8,$9*
0 Add four rect primitives between the rounded corners*
20,1,$1+$1,$2,$3,$4,$5,0*
20,1,$1+$1,$4,$5,$6,$7,0*
20,1,$1+$1,$6,$7,$8,$9,0*
20,1,$1+$1,$8,$9,$2,$3,0*%
G04 Aperture macros list end*
%ADD10RoundRect,0.160000X0.197500X0.160000X-0.197500X0.160000X-0.197500X-0.160000X0.197500X-0.160000X0*%
%ADD11RoundRect,0.155000X0.212500X0.155000X-0.212500X0.155000X-0.212500X-0.155000X0.212500X-0.155000X0*%
%ADD12RoundRect,0.075000X-0.700000X-0.075000X0.700000X-0.075000X0.700000X0.075000X-0.700000X0.075000X0*%
%ADD13RoundRect,0.075000X-0.075000X-0.700000X0.075000X-0.700000X0.075000X0.700000X-0.075000X0.700000X0*%
%ADD14RoundRect,0.155000X0.155000X-0.212500X0.155000X0.212500X-0.155000X0.212500X-0.155000X-0.212500X0*%
%ADD15RoundRect,0.155000X-0.212500X-0.155000X0.212500X-0.155000X0.212500X0.155000X-0.212500X0.155000X0*%
%ADD16RoundRect,0.250000X-0.450000X0.325000X-0.450000X-0.325000X0.450000X-0.325000X0.450000X0.325000X0*%
%ADD17RoundRect,0.500000X-1.250000X0.500000X-1.250000X-0.500000X1.250000X-0.500000X1.250000X0.500000X0*%
%ADD18RoundRect,0.500000X-0.500000X-1.250000X0.500000X-1.250000X0.500000X1.250000X-0.500000X1.250000X0*%
%ADD19R,4.800000X1.750000*%
%ADD20R,0.650000X1.050000*%
%ADD21RoundRect,0.160000X-0.160000X0.197500X-0.160000X-0.197500X0.160000X-0.197500X0.160000X0.197500X0*%
%ADD22R,1.350000X0.400000*%
%ADD23R,1.900000X1.500000*%
%ADD24R,2.000000X1.500000*%
%ADD25R,2.000000X3.800000*%
%ADD26RoundRect,0.155000X-0.155000X0.212500X-0.155000X-0.212500X0.155000X-0.212500X0.155000X0.212500X0*%
%ADD27R,0.450000X0.700000*%
%ADD28RoundRect,0.160000X0.160000X-0.197500X0.160000X0.197500X-0.160000X0.197500X-0.160000X-0.197500X0*%
%ADD29RoundRect,0.150000X0.587500X0.150000X-0.587500X0.150000X-0.587500X-0.150000X0.587500X-0.150000X0*%
%ADD30RoundRect,0.075000X0.075000X-0.350000X0.075000X0.350000X-0.075000X0.350000X-0.075000X-0.350000X0*%
%ADD31RoundRect,0.075000X0.350000X0.075000X-0.350000X0.075000X-0.350000X-0.075000X0.350000X-0.075000X0*%
%ADD32R,0.700000X0.450000*%
G04 APERTURE END LIST*
D10*
%TO.C,R4*%
X151600000Y-88000000D03*
X150405000Y-88000000D03*
%TD*%
%TO.C,R5*%
X151597500Y-89000000D03*
X150402500Y-89000000D03*
%TD*%
D11*
%TO.C,C15*%
X140000000Y-76800000D03*
X138865000Y-76800000D03*
%TD*%
D12*
%TO.C,U3*%
X130725000Y-86982500D03*
X130725000Y-87482500D03*
X130725000Y-87982500D03*
X130725000Y-88482500D03*
X130725000Y-88982500D03*
X130725000Y-89482500D03*
X130725000Y-89982500D03*
X130725000Y-90482500D03*
X130725000Y-90982500D03*
X130725000Y-91482500D03*
X130725000Y-91982500D03*
X130725000Y-92482500D03*
X130725000Y-92982500D03*
X130725000Y-93482500D03*
X130725000Y-93982500D03*
X130725000Y-94482500D03*
D13*
X132650000Y-96407500D03*
X133150000Y-96407500D03*
X133650000Y-96407500D03*
X134150000Y-96407500D03*
X134650000Y-96407500D03*
X135150000Y-96407500D03*
X135650000Y-96407500D03*
X136150000Y-96407500D03*
X136650000Y-96407500D03*
X137150000Y-96407500D03*
X137650000Y-96407500D03*
X138150000Y-96407500D03*
X138650000Y-96407500D03*
X139150000Y-96407500D03*
X139650000Y-96407500D03*
X140150000Y-96407500D03*
D12*
X142075000Y-94482500D03*
X142075000Y-93982500D03*
X142075000Y-93482500D03*
X142075000Y-92982500D03*
X142075000Y-92482500D03*
X142075000Y-91982500D03*
X142075000Y-91482500D03*
X142075000Y-90982500D03*
X142075000Y-90482500D03*
X142075000Y-89982500D03*
X142075000Y-89482500D03*
X142075000Y-88982500D03*
X142075000Y-88482500D03*
X142075000Y-87982500D03*
X142075000Y-87482500D03*
X142075000Y-86982500D03*
D13*
X140150000Y-85057500D03*
X139650000Y-85057500D03*
X139150000Y-85057500D03*
X138650000Y-85057500D03*
X138150000Y-85057500D03*
X137650000Y-85057500D03*
X137150000Y-85057500D03*
X136650000Y-85057500D03*
X136150000Y-85057500D03*
X135650000Y-85057500D03*
X135150000Y-85057500D03*
X134650000Y-85057500D03*
X134150000Y-85057500D03*
X133650000Y-85057500D03*
X133150000Y-85057500D03*
X132650000Y-85057500D03*
%TD*%
D14*
%TO.C,C6*%
X133500000Y-103600000D03*
X133500000Y-102465000D03*
%TD*%
D15*
%TO.C,C10*%
X127732500Y-93000000D03*
X128867500Y-93000000D03*
%TD*%
D14*
%TO.C,C11*%
X142200000Y-98900000D03*
X142200000Y-97765000D03*
%TD*%
D16*
%TO.C,D2*%
X135200000Y-76800000D03*
X135200000Y-78850000D03*
%TD*%
D15*
%TO.C,C1*%
X154132500Y-98600000D03*
X155267500Y-98600000D03*
%TD*%
D17*
%TO.C,5V*%
X159700000Y-80200000D03*
%TD*%
D18*
%TO.C,GND*%
X158800000Y-103700000D03*
%TD*%
D14*
%TO.C,C2*%
X154900000Y-95700000D03*
X154900000Y-94565000D03*
%TD*%
D19*
%TO.C,Y1*%
X121700000Y-93550000D03*
X121700000Y-90300000D03*
X121700000Y-87050000D03*
%TD*%
D20*
%TO.C,SW1*%
X131475000Y-75325000D03*
X131475000Y-79475000D03*
X129325000Y-75325000D03*
X129325000Y-79450000D03*
%TD*%
D16*
%TO.C,D3*%
X137400000Y-76800000D03*
X137400000Y-78850000D03*
%TD*%
D21*
%TO.C,R8*%
X134400000Y-81800000D03*
X134400000Y-82995000D03*
%TD*%
D22*
%TO.C,J1*%
X158637500Y-89700000D03*
X158637500Y-89050000D03*
X158637500Y-88400000D03*
X158637500Y-87750000D03*
X158637500Y-87100000D03*
D23*
X161337500Y-89400000D03*
X161337500Y-87400000D03*
%TD*%
D24*
%TO.C,U2*%
X151900000Y-96900000D03*
X151900000Y-94600000D03*
D25*
X145600000Y-94600000D03*
D24*
X151900000Y-92300000D03*
%TD*%
D26*
%TO.C,C4*%
X141200000Y-100532500D03*
X141200000Y-101667500D03*
%TD*%
D14*
%TO.C,C7*%
X143700000Y-97867500D03*
X143700000Y-96732500D03*
%TD*%
D27*
%TO.C,Q2*%
X124650000Y-108900000D03*
X125950000Y-108900000D03*
X125300000Y-106900000D03*
%TD*%
%TO.C,Q3*%
X127300000Y-108900000D03*
X128600000Y-108900000D03*
X127950000Y-106900000D03*
%TD*%
%TO.C,Q4*%
X129950000Y-108900000D03*
X131250000Y-108900000D03*
X130600000Y-106900000D03*
%TD*%
D28*
%TO.C,R1*%
X135700000Y-83000000D03*
X135700000Y-81805000D03*
%TD*%
D29*
%TO.C,D1*%
X158837500Y-96350000D03*
X158837500Y-94450000D03*
X156962500Y-95400000D03*
%TD*%
D30*
%TO.C,U1*%
X135850000Y-106250000D03*
X136350000Y-106250000D03*
X136850000Y-106250000D03*
X137350000Y-106250000D03*
X137850000Y-106250000D03*
X138350000Y-106250000D03*
D31*
X139050000Y-105550000D03*
X139050000Y-105050000D03*
X139050000Y-104550000D03*
X139050000Y-104050000D03*
X139050000Y-103550000D03*
X139050000Y-103050000D03*
D30*
X138350000Y-102350000D03*
X137850000Y-102350000D03*
X137350000Y-102350000D03*
X136850000Y-102350000D03*
X136350000Y-102350000D03*
X135850000Y-102350000D03*
D31*
X135150000Y-103050000D03*
X135150000Y-103550000D03*
X135150000Y-104050000D03*
X135150000Y-104550000D03*
X135150000Y-105050000D03*
X135150000Y-105550000D03*
%TD*%
D26*
%TO.C,C8*%
X131400000Y-82100000D03*
X131400000Y-83235000D03*
%TD*%
D14*
%TO.C,C5*%
X141200000Y-104167500D03*
X141200000Y-103032500D03*
%TD*%
D15*
%TO.C,C3*%
X138832500Y-100500000D03*
X139967500Y-100500000D03*
%TD*%
D26*
%TO.C,C14*%
X146000000Y-78232500D03*
X146000000Y-79367500D03*
%TD*%
D17*
%TO.C,3.3V*%
X159700000Y-77300000D03*
%TD*%
D32*
%TO.C,Q1*%
X124400000Y-96800000D03*
X124400000Y-95500000D03*
X122400000Y-96150000D03*
%TD*%
D10*
%TO.C,R14*%
X128895000Y-87500000D03*
X127700000Y-87500000D03*
%TD*%
D11*
%TO.C,C9*%
X145035000Y-87000000D03*
X143900000Y-87000000D03*
%TD*%
D27*
%TO.C,Q5*%
X132550000Y-109700000D03*
X133850000Y-109700000D03*
X133200000Y-107700000D03*
%TD*%
D28*
%TO.C,R2*%
X137000000Y-82995000D03*
X137000000Y-81800000D03*
%TD*%
D18*
%TO.C,5V_In*%
X158800000Y-99200000D03*
%TD*%
M02*
