%TF.GenerationSoftware,KiCad,Pcbnew,(6.0.1)*%
%TF.CreationDate,2022-08-29T10:58:40+03:00*%
%TF.ProjectId,flight controller,666c6967-6874-4206-936f-6e74726f6c6c,rev?*%
%TF.SameCoordinates,Original*%
%TF.FileFunction,Legend,Top*%
%TF.FilePolarity,Positive*%
%FSLAX46Y46*%
G04 Gerber Fmt 4.6, Leading zero omitted, Abs format (unit mm)*
G04 Created by KiCad (PCBNEW (6.0.1)) date 2022-08-29 10:58:40*
%MOMM*%
%LPD*%
G01*
G04 APERTURE LIST*
%ADD10C,0.150000*%
%ADD11C,0.125000*%
%ADD12C,0.120000*%
G04 APERTURE END LIST*
D10*
%TO.C,R4*%
X150983333Y-87116666D02*
X150750000Y-86783333D01*
X150583333Y-87116666D02*
X150583333Y-86416666D01*
X150850000Y-86416666D01*
X150916666Y-86450000D01*
X150950000Y-86483333D01*
X150983333Y-86550000D01*
X150983333Y-86650000D01*
X150950000Y-86716666D01*
X150916666Y-86750000D01*
X150850000Y-86783333D01*
X150583333Y-86783333D01*
X151583333Y-86650000D02*
X151583333Y-87116666D01*
X151416666Y-86383333D02*
X151250000Y-86883333D01*
X151683333Y-86883333D01*
%TO.C,R5*%
X151283333Y-90316666D02*
X151050000Y-89983333D01*
X150883333Y-90316666D02*
X150883333Y-89616666D01*
X151150000Y-89616666D01*
X151216666Y-89650000D01*
X151250000Y-89683333D01*
X151283333Y-89750000D01*
X151283333Y-89850000D01*
X151250000Y-89916666D01*
X151216666Y-89950000D01*
X151150000Y-89983333D01*
X150883333Y-89983333D01*
X151916666Y-89616666D02*
X151583333Y-89616666D01*
X151550000Y-89950000D01*
X151583333Y-89916666D01*
X151650000Y-89883333D01*
X151816666Y-89883333D01*
X151883333Y-89916666D01*
X151916666Y-89950000D01*
X151950000Y-90016666D01*
X151950000Y-90183333D01*
X151916666Y-90250000D01*
X151883333Y-90283333D01*
X151816666Y-90316666D01*
X151650000Y-90316666D01*
X151583333Y-90283333D01*
X151550000Y-90250000D01*
%TO.C,C15*%
X139150000Y-77950000D02*
X139116666Y-77983333D01*
X139016666Y-78016666D01*
X138950000Y-78016666D01*
X138850000Y-77983333D01*
X138783333Y-77916666D01*
X138750000Y-77850000D01*
X138716666Y-77716666D01*
X138716666Y-77616666D01*
X138750000Y-77483333D01*
X138783333Y-77416666D01*
X138850000Y-77350000D01*
X138950000Y-77316666D01*
X139016666Y-77316666D01*
X139116666Y-77350000D01*
X139150000Y-77383333D01*
X139816666Y-78016666D02*
X139416666Y-78016666D01*
X139616666Y-78016666D02*
X139616666Y-77316666D01*
X139550000Y-77416666D01*
X139483333Y-77483333D01*
X139416666Y-77516666D01*
X140450000Y-77316666D02*
X140116666Y-77316666D01*
X140083333Y-77650000D01*
X140116666Y-77616666D01*
X140183333Y-77583333D01*
X140350000Y-77583333D01*
X140416666Y-77616666D01*
X140450000Y-77650000D01*
X140483333Y-77716666D01*
X140483333Y-77883333D01*
X140450000Y-77950000D01*
X140416666Y-77983333D01*
X140350000Y-78016666D01*
X140183333Y-78016666D01*
X140116666Y-77983333D01*
X140083333Y-77950000D01*
%TO.C,U3*%
X135338095Y-89852380D02*
X135338095Y-90661904D01*
X135385714Y-90757142D01*
X135433333Y-90804761D01*
X135528571Y-90852380D01*
X135719047Y-90852380D01*
X135814285Y-90804761D01*
X135861904Y-90757142D01*
X135909523Y-90661904D01*
X135909523Y-89852380D01*
X136290476Y-89852380D02*
X136909523Y-89852380D01*
X136576190Y-90233333D01*
X136719047Y-90233333D01*
X136814285Y-90280952D01*
X136861904Y-90328571D01*
X136909523Y-90423809D01*
X136909523Y-90661904D01*
X136861904Y-90757142D01*
X136814285Y-90804761D01*
X136719047Y-90852380D01*
X136433333Y-90852380D01*
X136338095Y-90804761D01*
X136290476Y-90757142D01*
%TO.C,H3*%
X150238095Y-71552380D02*
X150238095Y-70552380D01*
X150238095Y-71028571D02*
X150809523Y-71028571D01*
X150809523Y-71552380D02*
X150809523Y-70552380D01*
X151190476Y-70552380D02*
X151809523Y-70552380D01*
X151476190Y-70933333D01*
X151619047Y-70933333D01*
X151714285Y-70980952D01*
X151761904Y-71028571D01*
X151809523Y-71123809D01*
X151809523Y-71361904D01*
X151761904Y-71457142D01*
X151714285Y-71504761D01*
X151619047Y-71552380D01*
X151333333Y-71552380D01*
X151238095Y-71504761D01*
X151190476Y-71457142D01*
%TO.C,C6*%
X132590000Y-103149166D02*
X132623333Y-103182500D01*
X132656666Y-103282500D01*
X132656666Y-103349166D01*
X132623333Y-103449166D01*
X132556666Y-103515833D01*
X132490000Y-103549166D01*
X132356666Y-103582500D01*
X132256666Y-103582500D01*
X132123333Y-103549166D01*
X132056666Y-103515833D01*
X131990000Y-103449166D01*
X131956666Y-103349166D01*
X131956666Y-103282500D01*
X131990000Y-103182500D01*
X132023333Y-103149166D01*
X131956666Y-102549166D02*
X131956666Y-102682500D01*
X131990000Y-102749166D01*
X132023333Y-102782500D01*
X132123333Y-102849166D01*
X132256666Y-102882500D01*
X132523333Y-102882500D01*
X132590000Y-102849166D01*
X132623333Y-102815833D01*
X132656666Y-102749166D01*
X132656666Y-102615833D01*
X132623333Y-102549166D01*
X132590000Y-102515833D01*
X132523333Y-102482500D01*
X132356666Y-102482500D01*
X132290000Y-102515833D01*
X132256666Y-102549166D01*
X132223333Y-102615833D01*
X132223333Y-102749166D01*
X132256666Y-102815833D01*
X132290000Y-102849166D01*
X132356666Y-102882500D01*
%TO.C,C10*%
X127850000Y-94250000D02*
X127816666Y-94283333D01*
X127716666Y-94316666D01*
X127650000Y-94316666D01*
X127550000Y-94283333D01*
X127483333Y-94216666D01*
X127450000Y-94150000D01*
X127416666Y-94016666D01*
X127416666Y-93916666D01*
X127450000Y-93783333D01*
X127483333Y-93716666D01*
X127550000Y-93650000D01*
X127650000Y-93616666D01*
X127716666Y-93616666D01*
X127816666Y-93650000D01*
X127850000Y-93683333D01*
X128516666Y-94316666D02*
X128116666Y-94316666D01*
X128316666Y-94316666D02*
X128316666Y-93616666D01*
X128250000Y-93716666D01*
X128183333Y-93783333D01*
X128116666Y-93816666D01*
X128950000Y-93616666D02*
X129016666Y-93616666D01*
X129083333Y-93650000D01*
X129116666Y-93683333D01*
X129150000Y-93750000D01*
X129183333Y-93883333D01*
X129183333Y-94050000D01*
X129150000Y-94183333D01*
X129116666Y-94250000D01*
X129083333Y-94283333D01*
X129016666Y-94316666D01*
X128950000Y-94316666D01*
X128883333Y-94283333D01*
X128850000Y-94250000D01*
X128816666Y-94183333D01*
X128783333Y-94050000D01*
X128783333Y-93883333D01*
X128816666Y-93750000D01*
X128850000Y-93683333D01*
X128883333Y-93650000D01*
X128950000Y-93616666D01*
%TO.C,H2*%
X119738095Y-102052380D02*
X119738095Y-101052380D01*
X119738095Y-101528571D02*
X120309523Y-101528571D01*
X120309523Y-102052380D02*
X120309523Y-101052380D01*
X120738095Y-101147619D02*
X120785714Y-101100000D01*
X120880952Y-101052380D01*
X121119047Y-101052380D01*
X121214285Y-101100000D01*
X121261904Y-101147619D01*
X121309523Y-101242857D01*
X121309523Y-101338095D01*
X121261904Y-101480952D01*
X120690476Y-102052380D01*
X121309523Y-102052380D01*
D11*
%TO.C,C11*%
X142014285Y-100114285D02*
X141985714Y-100142857D01*
X141900000Y-100171428D01*
X141842857Y-100171428D01*
X141757142Y-100142857D01*
X141700000Y-100085714D01*
X141671428Y-100028571D01*
X141642857Y-99914285D01*
X141642857Y-99828571D01*
X141671428Y-99714285D01*
X141700000Y-99657142D01*
X141757142Y-99600000D01*
X141842857Y-99571428D01*
X141900000Y-99571428D01*
X141985714Y-99600000D01*
X142014285Y-99628571D01*
X142585714Y-100171428D02*
X142242857Y-100171428D01*
X142414285Y-100171428D02*
X142414285Y-99571428D01*
X142357142Y-99657142D01*
X142300000Y-99714285D01*
X142242857Y-99742857D01*
X143157142Y-100171428D02*
X142814285Y-100171428D01*
X142985714Y-100171428D02*
X142985714Y-99571428D01*
X142928571Y-99657142D01*
X142871428Y-99714285D01*
X142814285Y-99742857D01*
D10*
%TO.C,D2*%
X134683333Y-75516666D02*
X134683333Y-74816666D01*
X134850000Y-74816666D01*
X134950000Y-74850000D01*
X135016666Y-74916666D01*
X135050000Y-74983333D01*
X135083333Y-75116666D01*
X135083333Y-75216666D01*
X135050000Y-75350000D01*
X135016666Y-75416666D01*
X134950000Y-75483333D01*
X134850000Y-75516666D01*
X134683333Y-75516666D01*
X135350000Y-74883333D02*
X135383333Y-74850000D01*
X135450000Y-74816666D01*
X135616666Y-74816666D01*
X135683333Y-74850000D01*
X135716666Y-74883333D01*
X135750000Y-74950000D01*
X135750000Y-75016666D01*
X135716666Y-75116666D01*
X135316666Y-75516666D01*
X135750000Y-75516666D01*
%TO.C,C1*%
X154583333Y-97850000D02*
X154550000Y-97883333D01*
X154450000Y-97916666D01*
X154383333Y-97916666D01*
X154283333Y-97883333D01*
X154216666Y-97816666D01*
X154183333Y-97750000D01*
X154150000Y-97616666D01*
X154150000Y-97516666D01*
X154183333Y-97383333D01*
X154216666Y-97316666D01*
X154283333Y-97250000D01*
X154383333Y-97216666D01*
X154450000Y-97216666D01*
X154550000Y-97250000D01*
X154583333Y-97283333D01*
X155250000Y-97916666D02*
X154850000Y-97916666D01*
X155050000Y-97916666D02*
X155050000Y-97216666D01*
X154983333Y-97316666D01*
X154916666Y-97383333D01*
X154850000Y-97416666D01*
%TO.C,H4*%
X119738095Y-71552380D02*
X119738095Y-70552380D01*
X119738095Y-71028571D02*
X120309523Y-71028571D01*
X120309523Y-71552380D02*
X120309523Y-70552380D01*
X121214285Y-70885714D02*
X121214285Y-71552380D01*
X120976190Y-70504761D02*
X120738095Y-71219047D01*
X121357142Y-71219047D01*
%TO.C,5V*%
X161856666Y-80333333D02*
X161856666Y-80666666D01*
X162190000Y-80700000D01*
X162156666Y-80666666D01*
X162123333Y-80600000D01*
X162123333Y-80433333D01*
X162156666Y-80366666D01*
X162190000Y-80333333D01*
X162256666Y-80300000D01*
X162423333Y-80300000D01*
X162490000Y-80333333D01*
X162523333Y-80366666D01*
X162556666Y-80433333D01*
X162556666Y-80600000D01*
X162523333Y-80666666D01*
X162490000Y-80700000D01*
X161856666Y-80100000D02*
X162556666Y-79866666D01*
X161856666Y-79633333D01*
%TO.C,GND*%
X160250000Y-104233333D02*
X160216666Y-104300000D01*
X160216666Y-104400000D01*
X160250000Y-104500000D01*
X160316666Y-104566666D01*
X160383333Y-104600000D01*
X160516666Y-104633333D01*
X160616666Y-104633333D01*
X160750000Y-104600000D01*
X160816666Y-104566666D01*
X160883333Y-104500000D01*
X160916666Y-104400000D01*
X160916666Y-104333333D01*
X160883333Y-104233333D01*
X160850000Y-104200000D01*
X160616666Y-104200000D01*
X160616666Y-104333333D01*
X160916666Y-103900000D02*
X160216666Y-103900000D01*
X160916666Y-103500000D01*
X160216666Y-103500000D01*
X160916666Y-103166666D02*
X160216666Y-103166666D01*
X160216666Y-103000000D01*
X160250000Y-102900000D01*
X160316666Y-102833333D01*
X160383333Y-102800000D01*
X160516666Y-102766666D01*
X160616666Y-102766666D01*
X160750000Y-102800000D01*
X160816666Y-102833333D01*
X160883333Y-102900000D01*
X160916666Y-103000000D01*
X160916666Y-103166666D01*
%TO.C,C2*%
X153990000Y-95249166D02*
X154023333Y-95282500D01*
X154056666Y-95382500D01*
X154056666Y-95449166D01*
X154023333Y-95549166D01*
X153956666Y-95615833D01*
X153890000Y-95649166D01*
X153756666Y-95682500D01*
X153656666Y-95682500D01*
X153523333Y-95649166D01*
X153456666Y-95615833D01*
X153390000Y-95549166D01*
X153356666Y-95449166D01*
X153356666Y-95382500D01*
X153390000Y-95282500D01*
X153423333Y-95249166D01*
X153423333Y-94982500D02*
X153390000Y-94949166D01*
X153356666Y-94882500D01*
X153356666Y-94715833D01*
X153390000Y-94649166D01*
X153423333Y-94615833D01*
X153490000Y-94582500D01*
X153556666Y-94582500D01*
X153656666Y-94615833D01*
X154056666Y-95015833D01*
X154056666Y-94582500D01*
%TO.C,Y1*%
X118283333Y-90633333D02*
X118616666Y-90633333D01*
X117916666Y-90866666D02*
X118283333Y-90633333D01*
X117916666Y-90400000D01*
X118616666Y-89800000D02*
X118616666Y-90200000D01*
X118616666Y-90000000D02*
X117916666Y-90000000D01*
X118016666Y-90066666D01*
X118083333Y-90133333D01*
X118116666Y-90200000D01*
%TO.C,SW1*%
X133404761Y-78883333D02*
X133452380Y-78740476D01*
X133452380Y-78502380D01*
X133404761Y-78407142D01*
X133357142Y-78359523D01*
X133261904Y-78311904D01*
X133166666Y-78311904D01*
X133071428Y-78359523D01*
X133023809Y-78407142D01*
X132976190Y-78502380D01*
X132928571Y-78692857D01*
X132880952Y-78788095D01*
X132833333Y-78835714D01*
X132738095Y-78883333D01*
X132642857Y-78883333D01*
X132547619Y-78835714D01*
X132500000Y-78788095D01*
X132452380Y-78692857D01*
X132452380Y-78454761D01*
X132500000Y-78311904D01*
X132452380Y-77978571D02*
X133452380Y-77740476D01*
X132738095Y-77550000D01*
X133452380Y-77359523D01*
X132452380Y-77121428D01*
X133452380Y-76216666D02*
X133452380Y-76788095D01*
X133452380Y-76502380D02*
X132452380Y-76502380D01*
X132595238Y-76597619D01*
X132690476Y-76692857D01*
X132738095Y-76788095D01*
%TO.C,D3*%
X136883333Y-75566666D02*
X136883333Y-74866666D01*
X137050000Y-74866666D01*
X137150000Y-74900000D01*
X137216666Y-74966666D01*
X137250000Y-75033333D01*
X137283333Y-75166666D01*
X137283333Y-75266666D01*
X137250000Y-75400000D01*
X137216666Y-75466666D01*
X137150000Y-75533333D01*
X137050000Y-75566666D01*
X136883333Y-75566666D01*
X137516666Y-74866666D02*
X137950000Y-74866666D01*
X137716666Y-75133333D01*
X137816666Y-75133333D01*
X137883333Y-75166666D01*
X137916666Y-75200000D01*
X137950000Y-75266666D01*
X137950000Y-75433333D01*
X137916666Y-75500000D01*
X137883333Y-75533333D01*
X137816666Y-75566666D01*
X137616666Y-75566666D01*
X137550000Y-75533333D01*
X137516666Y-75500000D01*
%TO.C,R8*%
X134183333Y-81116666D02*
X133950000Y-80783333D01*
X133783333Y-81116666D02*
X133783333Y-80416666D01*
X134050000Y-80416666D01*
X134116666Y-80450000D01*
X134150000Y-80483333D01*
X134183333Y-80550000D01*
X134183333Y-80650000D01*
X134150000Y-80716666D01*
X134116666Y-80750000D01*
X134050000Y-80783333D01*
X133783333Y-80783333D01*
X134583333Y-80716666D02*
X134516666Y-80683333D01*
X134483333Y-80650000D01*
X134450000Y-80583333D01*
X134450000Y-80550000D01*
X134483333Y-80483333D01*
X134516666Y-80450000D01*
X134583333Y-80416666D01*
X134716666Y-80416666D01*
X134783333Y-80450000D01*
X134816666Y-80483333D01*
X134850000Y-80550000D01*
X134850000Y-80583333D01*
X134816666Y-80650000D01*
X134783333Y-80683333D01*
X134716666Y-80716666D01*
X134583333Y-80716666D01*
X134516666Y-80750000D01*
X134483333Y-80783333D01*
X134450000Y-80850000D01*
X134450000Y-80983333D01*
X134483333Y-81050000D01*
X134516666Y-81083333D01*
X134583333Y-81116666D01*
X134716666Y-81116666D01*
X134783333Y-81083333D01*
X134816666Y-81050000D01*
X134850000Y-80983333D01*
X134850000Y-80850000D01*
X134816666Y-80783333D01*
X134783333Y-80750000D01*
X134716666Y-80716666D01*
%TO.C,J1*%
X156604166Y-88633333D02*
X157104166Y-88633333D01*
X157204166Y-88666666D01*
X157270833Y-88733333D01*
X157304166Y-88833333D01*
X157304166Y-88900000D01*
X157304166Y-87933333D02*
X157304166Y-88333333D01*
X157304166Y-88133333D02*
X156604166Y-88133333D01*
X156704166Y-88200000D01*
X156770833Y-88266666D01*
X156804166Y-88333333D01*
%TO.C,U2*%
X147988095Y-94352380D02*
X147988095Y-95161904D01*
X148035714Y-95257142D01*
X148083333Y-95304761D01*
X148178571Y-95352380D01*
X148369047Y-95352380D01*
X148464285Y-95304761D01*
X148511904Y-95257142D01*
X148559523Y-95161904D01*
X148559523Y-94352380D01*
X148988095Y-94447619D02*
X149035714Y-94400000D01*
X149130952Y-94352380D01*
X149369047Y-94352380D01*
X149464285Y-94400000D01*
X149511904Y-94447619D01*
X149559523Y-94542857D01*
X149559523Y-94638095D01*
X149511904Y-94780952D01*
X148940476Y-95352380D01*
X149559523Y-95352380D01*
%TO.C,C4*%
X142610000Y-101216666D02*
X142643333Y-101250000D01*
X142676666Y-101350000D01*
X142676666Y-101416666D01*
X142643333Y-101516666D01*
X142576666Y-101583333D01*
X142510000Y-101616666D01*
X142376666Y-101650000D01*
X142276666Y-101650000D01*
X142143333Y-101616666D01*
X142076666Y-101583333D01*
X142010000Y-101516666D01*
X141976666Y-101416666D01*
X141976666Y-101350000D01*
X142010000Y-101250000D01*
X142043333Y-101216666D01*
X142210000Y-100616666D02*
X142676666Y-100616666D01*
X141943333Y-100783333D02*
X142443333Y-100950000D01*
X142443333Y-100516666D01*
%TO.C,C7*%
X144950000Y-97616666D02*
X144983333Y-97650000D01*
X145016666Y-97750000D01*
X145016666Y-97816666D01*
X144983333Y-97916666D01*
X144916666Y-97983333D01*
X144850000Y-98016666D01*
X144716666Y-98050000D01*
X144616666Y-98050000D01*
X144483333Y-98016666D01*
X144416666Y-97983333D01*
X144350000Y-97916666D01*
X144316666Y-97816666D01*
X144316666Y-97750000D01*
X144350000Y-97650000D01*
X144383333Y-97616666D01*
X144316666Y-97383333D02*
X144316666Y-96916666D01*
X145016666Y-97216666D01*
%TO.C,Q2*%
X125033333Y-106083333D02*
X124966666Y-106050000D01*
X124900000Y-105983333D01*
X124800000Y-105883333D01*
X124733333Y-105850000D01*
X124666666Y-105850000D01*
X124700000Y-106016666D02*
X124633333Y-105983333D01*
X124566666Y-105916666D01*
X124533333Y-105783333D01*
X124533333Y-105550000D01*
X124566666Y-105416666D01*
X124633333Y-105350000D01*
X124700000Y-105316666D01*
X124833333Y-105316666D01*
X124900000Y-105350000D01*
X124966666Y-105416666D01*
X125000000Y-105550000D01*
X125000000Y-105783333D01*
X124966666Y-105916666D01*
X124900000Y-105983333D01*
X124833333Y-106016666D01*
X124700000Y-106016666D01*
X125266666Y-105383333D02*
X125300000Y-105350000D01*
X125366666Y-105316666D01*
X125533333Y-105316666D01*
X125600000Y-105350000D01*
X125633333Y-105383333D01*
X125666666Y-105450000D01*
X125666666Y-105516666D01*
X125633333Y-105616666D01*
X125233333Y-106016666D01*
X125666666Y-106016666D01*
%TO.C,Q3*%
X127783333Y-106183333D02*
X127716666Y-106150000D01*
X127650000Y-106083333D01*
X127550000Y-105983333D01*
X127483333Y-105950000D01*
X127416666Y-105950000D01*
X127450000Y-106116666D02*
X127383333Y-106083333D01*
X127316666Y-106016666D01*
X127283333Y-105883333D01*
X127283333Y-105650000D01*
X127316666Y-105516666D01*
X127383333Y-105450000D01*
X127450000Y-105416666D01*
X127583333Y-105416666D01*
X127650000Y-105450000D01*
X127716666Y-105516666D01*
X127750000Y-105650000D01*
X127750000Y-105883333D01*
X127716666Y-106016666D01*
X127650000Y-106083333D01*
X127583333Y-106116666D01*
X127450000Y-106116666D01*
X127983333Y-105416666D02*
X128416666Y-105416666D01*
X128183333Y-105683333D01*
X128283333Y-105683333D01*
X128350000Y-105716666D01*
X128383333Y-105750000D01*
X128416666Y-105816666D01*
X128416666Y-105983333D01*
X128383333Y-106050000D01*
X128350000Y-106083333D01*
X128283333Y-106116666D01*
X128083333Y-106116666D01*
X128016666Y-106083333D01*
X127983333Y-106050000D01*
%TO.C,Q4*%
X130483333Y-106133333D02*
X130416666Y-106100000D01*
X130350000Y-106033333D01*
X130250000Y-105933333D01*
X130183333Y-105900000D01*
X130116666Y-105900000D01*
X130150000Y-106066666D02*
X130083333Y-106033333D01*
X130016666Y-105966666D01*
X129983333Y-105833333D01*
X129983333Y-105600000D01*
X130016666Y-105466666D01*
X130083333Y-105400000D01*
X130150000Y-105366666D01*
X130283333Y-105366666D01*
X130350000Y-105400000D01*
X130416666Y-105466666D01*
X130450000Y-105600000D01*
X130450000Y-105833333D01*
X130416666Y-105966666D01*
X130350000Y-106033333D01*
X130283333Y-106066666D01*
X130150000Y-106066666D01*
X131050000Y-105600000D02*
X131050000Y-106066666D01*
X130883333Y-105333333D02*
X130716666Y-105833333D01*
X131150000Y-105833333D01*
%TO.C,R1*%
X135583333Y-81116666D02*
X135350000Y-80783333D01*
X135183333Y-81116666D02*
X135183333Y-80416666D01*
X135450000Y-80416666D01*
X135516666Y-80450000D01*
X135550000Y-80483333D01*
X135583333Y-80550000D01*
X135583333Y-80650000D01*
X135550000Y-80716666D01*
X135516666Y-80750000D01*
X135450000Y-80783333D01*
X135183333Y-80783333D01*
X136250000Y-81116666D02*
X135850000Y-81116666D01*
X136050000Y-81116666D02*
X136050000Y-80416666D01*
X135983333Y-80516666D01*
X135916666Y-80583333D01*
X135850000Y-80616666D01*
%TO.C,D1*%
X160616666Y-95916666D02*
X159916666Y-95916666D01*
X159916666Y-95750000D01*
X159950000Y-95650000D01*
X160016666Y-95583333D01*
X160083333Y-95550000D01*
X160216666Y-95516666D01*
X160316666Y-95516666D01*
X160450000Y-95550000D01*
X160516666Y-95583333D01*
X160583333Y-95650000D01*
X160616666Y-95750000D01*
X160616666Y-95916666D01*
X160616666Y-94850000D02*
X160616666Y-95250000D01*
X160616666Y-95050000D02*
X159916666Y-95050000D01*
X160016666Y-95116666D01*
X160083333Y-95183333D01*
X160116666Y-95250000D01*
%TO.C,U1*%
X136338095Y-103852380D02*
X136338095Y-104661904D01*
X136385714Y-104757142D01*
X136433333Y-104804761D01*
X136528571Y-104852380D01*
X136719047Y-104852380D01*
X136814285Y-104804761D01*
X136861904Y-104757142D01*
X136909523Y-104661904D01*
X136909523Y-103852380D01*
X137909523Y-104852380D02*
X137338095Y-104852380D01*
X137623809Y-104852380D02*
X137623809Y-103852380D01*
X137528571Y-103995238D01*
X137433333Y-104090476D01*
X137338095Y-104138095D01*
%TO.C,C8*%
X130900000Y-81314285D02*
X130871428Y-81342857D01*
X130785714Y-81371428D01*
X130728571Y-81371428D01*
X130642857Y-81342857D01*
X130585714Y-81285714D01*
X130557142Y-81228571D01*
X130528571Y-81114285D01*
X130528571Y-81028571D01*
X130557142Y-80914285D01*
X130585714Y-80857142D01*
X130642857Y-80800000D01*
X130728571Y-80771428D01*
X130785714Y-80771428D01*
X130871428Y-80800000D01*
X130900000Y-80828571D01*
X131242857Y-81028571D02*
X131185714Y-81000000D01*
X131157142Y-80971428D01*
X131128571Y-80914285D01*
X131128571Y-80885714D01*
X131157142Y-80828571D01*
X131185714Y-80800000D01*
X131242857Y-80771428D01*
X131357142Y-80771428D01*
X131414285Y-80800000D01*
X131442857Y-80828571D01*
X131471428Y-80885714D01*
X131471428Y-80914285D01*
X131442857Y-80971428D01*
X131414285Y-81000000D01*
X131357142Y-81028571D01*
X131242857Y-81028571D01*
X131185714Y-81057142D01*
X131157142Y-81085714D01*
X131128571Y-81142857D01*
X131128571Y-81257142D01*
X131157142Y-81314285D01*
X131185714Y-81342857D01*
X131242857Y-81371428D01*
X131357142Y-81371428D01*
X131414285Y-81342857D01*
X131442857Y-81314285D01*
X131471428Y-81257142D01*
X131471428Y-81142857D01*
X131442857Y-81085714D01*
X131414285Y-81057142D01*
X131357142Y-81028571D01*
%TO.C,C5*%
X142650000Y-103716666D02*
X142683333Y-103750000D01*
X142716666Y-103850000D01*
X142716666Y-103916666D01*
X142683333Y-104016666D01*
X142616666Y-104083333D01*
X142550000Y-104116666D01*
X142416666Y-104150000D01*
X142316666Y-104150000D01*
X142183333Y-104116666D01*
X142116666Y-104083333D01*
X142050000Y-104016666D01*
X142016666Y-103916666D01*
X142016666Y-103850000D01*
X142050000Y-103750000D01*
X142083333Y-103716666D01*
X142016666Y-103083333D02*
X142016666Y-103416666D01*
X142350000Y-103450000D01*
X142316666Y-103416666D01*
X142283333Y-103350000D01*
X142283333Y-103183333D01*
X142316666Y-103116666D01*
X142350000Y-103083333D01*
X142416666Y-103050000D01*
X142583333Y-103050000D01*
X142650000Y-103083333D01*
X142683333Y-103116666D01*
X142716666Y-103183333D01*
X142716666Y-103350000D01*
X142683333Y-103416666D01*
X142650000Y-103450000D01*
%TO.C,C3*%
X139283333Y-99850000D02*
X139250000Y-99883333D01*
X139150000Y-99916666D01*
X139083333Y-99916666D01*
X138983333Y-99883333D01*
X138916666Y-99816666D01*
X138883333Y-99750000D01*
X138850000Y-99616666D01*
X138850000Y-99516666D01*
X138883333Y-99383333D01*
X138916666Y-99316666D01*
X138983333Y-99250000D01*
X139083333Y-99216666D01*
X139150000Y-99216666D01*
X139250000Y-99250000D01*
X139283333Y-99283333D01*
X139516666Y-99216666D02*
X139950000Y-99216666D01*
X139716666Y-99483333D01*
X139816666Y-99483333D01*
X139883333Y-99516666D01*
X139916666Y-99550000D01*
X139950000Y-99616666D01*
X139950000Y-99783333D01*
X139916666Y-99850000D01*
X139883333Y-99883333D01*
X139816666Y-99916666D01*
X139616666Y-99916666D01*
X139550000Y-99883333D01*
X139516666Y-99850000D01*
%TO.C,C14*%
X145350000Y-79250000D02*
X145383333Y-79283333D01*
X145416666Y-79383333D01*
X145416666Y-79450000D01*
X145383333Y-79550000D01*
X145316666Y-79616666D01*
X145250000Y-79650000D01*
X145116666Y-79683333D01*
X145016666Y-79683333D01*
X144883333Y-79650000D01*
X144816666Y-79616666D01*
X144750000Y-79550000D01*
X144716666Y-79450000D01*
X144716666Y-79383333D01*
X144750000Y-79283333D01*
X144783333Y-79250000D01*
X145416666Y-78583333D02*
X145416666Y-78983333D01*
X145416666Y-78783333D02*
X144716666Y-78783333D01*
X144816666Y-78850000D01*
X144883333Y-78916666D01*
X144916666Y-78983333D01*
X144950000Y-77983333D02*
X145416666Y-77983333D01*
X144683333Y-78150000D02*
X145183333Y-78316666D01*
X145183333Y-77883333D01*
%TO.C,H1*%
X150238095Y-102052380D02*
X150238095Y-101052380D01*
X150238095Y-101528571D02*
X150809523Y-101528571D01*
X150809523Y-102052380D02*
X150809523Y-101052380D01*
X151809523Y-102052380D02*
X151238095Y-102052380D01*
X151523809Y-102052380D02*
X151523809Y-101052380D01*
X151428571Y-101195238D01*
X151333333Y-101290476D01*
X151238095Y-101338095D01*
%TO.C,3.3V*%
X161856666Y-78333333D02*
X161856666Y-77900000D01*
X162123333Y-78133333D01*
X162123333Y-78033333D01*
X162156666Y-77966666D01*
X162190000Y-77933333D01*
X162256666Y-77900000D01*
X162423333Y-77900000D01*
X162490000Y-77933333D01*
X162523333Y-77966666D01*
X162556666Y-78033333D01*
X162556666Y-78233333D01*
X162523333Y-78300000D01*
X162490000Y-78333333D01*
X162490000Y-77600000D02*
X162523333Y-77566666D01*
X162556666Y-77600000D01*
X162523333Y-77633333D01*
X162490000Y-77600000D01*
X162556666Y-77600000D01*
X161856666Y-77333333D02*
X161856666Y-76900000D01*
X162123333Y-77133333D01*
X162123333Y-77033333D01*
X162156666Y-76966666D01*
X162190000Y-76933333D01*
X162256666Y-76900000D01*
X162423333Y-76900000D01*
X162490000Y-76933333D01*
X162523333Y-76966666D01*
X162556666Y-77033333D01*
X162556666Y-77233333D01*
X162523333Y-77300000D01*
X162490000Y-77333333D01*
X161856666Y-76700000D02*
X162556666Y-76466666D01*
X161856666Y-76233333D01*
%TO.C,Q1*%
X124104761Y-98647619D02*
X124009523Y-98600000D01*
X123914285Y-98504761D01*
X123771428Y-98361904D01*
X123676190Y-98314285D01*
X123580952Y-98314285D01*
X123628571Y-98552380D02*
X123533333Y-98504761D01*
X123438095Y-98409523D01*
X123390476Y-98219047D01*
X123390476Y-97885714D01*
X123438095Y-97695238D01*
X123533333Y-97600000D01*
X123628571Y-97552380D01*
X123819047Y-97552380D01*
X123914285Y-97600000D01*
X124009523Y-97695238D01*
X124057142Y-97885714D01*
X124057142Y-98219047D01*
X124009523Y-98409523D01*
X123914285Y-98504761D01*
X123819047Y-98552380D01*
X123628571Y-98552380D01*
X125009523Y-98552380D02*
X124438095Y-98552380D01*
X124723809Y-98552380D02*
X124723809Y-97552380D01*
X124628571Y-97695238D01*
X124533333Y-97790476D01*
X124438095Y-97838095D01*
%TO.C,R14*%
X127850000Y-88716666D02*
X127616666Y-88383333D01*
X127450000Y-88716666D02*
X127450000Y-88016666D01*
X127716666Y-88016666D01*
X127783333Y-88050000D01*
X127816666Y-88083333D01*
X127850000Y-88150000D01*
X127850000Y-88250000D01*
X127816666Y-88316666D01*
X127783333Y-88350000D01*
X127716666Y-88383333D01*
X127450000Y-88383333D01*
X128516666Y-88716666D02*
X128116666Y-88716666D01*
X128316666Y-88716666D02*
X128316666Y-88016666D01*
X128250000Y-88116666D01*
X128183333Y-88183333D01*
X128116666Y-88216666D01*
X129116666Y-88250000D02*
X129116666Y-88716666D01*
X128950000Y-87983333D02*
X128783333Y-88483333D01*
X129216666Y-88483333D01*
%TO.C,C9*%
X144350833Y-88410000D02*
X144317500Y-88443333D01*
X144217500Y-88476666D01*
X144150833Y-88476666D01*
X144050833Y-88443333D01*
X143984166Y-88376666D01*
X143950833Y-88310000D01*
X143917500Y-88176666D01*
X143917500Y-88076666D01*
X143950833Y-87943333D01*
X143984166Y-87876666D01*
X144050833Y-87810000D01*
X144150833Y-87776666D01*
X144217500Y-87776666D01*
X144317500Y-87810000D01*
X144350833Y-87843333D01*
X144684166Y-88476666D02*
X144817500Y-88476666D01*
X144884166Y-88443333D01*
X144917500Y-88410000D01*
X144984166Y-88310000D01*
X145017500Y-88176666D01*
X145017500Y-87910000D01*
X144984166Y-87843333D01*
X144950833Y-87810000D01*
X144884166Y-87776666D01*
X144750833Y-87776666D01*
X144684166Y-87810000D01*
X144650833Y-87843333D01*
X144617500Y-87910000D01*
X144617500Y-88076666D01*
X144650833Y-88143333D01*
X144684166Y-88176666D01*
X144750833Y-88210000D01*
X144884166Y-88210000D01*
X144950833Y-88176666D01*
X144984166Y-88143333D01*
X145017500Y-88076666D01*
%TO.C,Q5*%
X133133333Y-106933333D02*
X133066666Y-106900000D01*
X133000000Y-106833333D01*
X132900000Y-106733333D01*
X132833333Y-106700000D01*
X132766666Y-106700000D01*
X132800000Y-106866666D02*
X132733333Y-106833333D01*
X132666666Y-106766666D01*
X132633333Y-106633333D01*
X132633333Y-106400000D01*
X132666666Y-106266666D01*
X132733333Y-106200000D01*
X132800000Y-106166666D01*
X132933333Y-106166666D01*
X133000000Y-106200000D01*
X133066666Y-106266666D01*
X133100000Y-106400000D01*
X133100000Y-106633333D01*
X133066666Y-106766666D01*
X133000000Y-106833333D01*
X132933333Y-106866666D01*
X132800000Y-106866666D01*
X133733333Y-106166666D02*
X133400000Y-106166666D01*
X133366666Y-106500000D01*
X133400000Y-106466666D01*
X133466666Y-106433333D01*
X133633333Y-106433333D01*
X133700000Y-106466666D01*
X133733333Y-106500000D01*
X133766666Y-106566666D01*
X133766666Y-106733333D01*
X133733333Y-106800000D01*
X133700000Y-106833333D01*
X133633333Y-106866666D01*
X133466666Y-106866666D01*
X133400000Y-106833333D01*
X133366666Y-106800000D01*
%TO.C,R2*%
X136983333Y-81139166D02*
X136750000Y-80805833D01*
X136583333Y-81139166D02*
X136583333Y-80439166D01*
X136850000Y-80439166D01*
X136916666Y-80472500D01*
X136950000Y-80505833D01*
X136983333Y-80572500D01*
X136983333Y-80672500D01*
X136950000Y-80739166D01*
X136916666Y-80772500D01*
X136850000Y-80805833D01*
X136583333Y-80805833D01*
X137250000Y-80505833D02*
X137283333Y-80472500D01*
X137350000Y-80439166D01*
X137516666Y-80439166D01*
X137583333Y-80472500D01*
X137616666Y-80505833D01*
X137650000Y-80572500D01*
X137650000Y-80639166D01*
X137616666Y-80739166D01*
X137216666Y-81139166D01*
X137650000Y-81139166D01*
%TO.C,5V_In*%
X160116666Y-100083333D02*
X160116666Y-100416666D01*
X160450000Y-100450000D01*
X160416666Y-100416666D01*
X160383333Y-100350000D01*
X160383333Y-100183333D01*
X160416666Y-100116666D01*
X160450000Y-100083333D01*
X160516666Y-100050000D01*
X160683333Y-100050000D01*
X160750000Y-100083333D01*
X160783333Y-100116666D01*
X160816666Y-100183333D01*
X160816666Y-100350000D01*
X160783333Y-100416666D01*
X160750000Y-100450000D01*
X160116666Y-99850000D02*
X160816666Y-99616666D01*
X160116666Y-99383333D01*
X160883333Y-99316666D02*
X160883333Y-98783333D01*
X160816666Y-98616666D02*
X160116666Y-98616666D01*
X160350000Y-98283333D02*
X160816666Y-98283333D01*
X160416666Y-98283333D02*
X160383333Y-98250000D01*
X160350000Y-98183333D01*
X160350000Y-98083333D01*
X160383333Y-98016666D01*
X160450000Y-97983333D01*
X160816666Y-97983333D01*
D12*
%TO.C,R4*%
X151170121Y-87620000D02*
X150834879Y-87620000D01*
X151170121Y-88380000D02*
X150834879Y-88380000D01*
%TO.C,R5*%
X151167621Y-89380000D02*
X150832379Y-89380000D01*
X151167621Y-88620000D02*
X150832379Y-88620000D01*
%TO.C,C15*%
X139548335Y-77160000D02*
X139316665Y-77160000D01*
X139548335Y-76440000D02*
X139316665Y-76440000D01*
%TO.C,U3*%
X131290000Y-85622500D02*
X131290000Y-86572500D01*
X141510000Y-85622500D02*
X141510000Y-86572500D01*
X131290000Y-95842500D02*
X131290000Y-94892500D01*
X131290000Y-86572500D02*
X129950000Y-86572500D01*
X132240000Y-85622500D02*
X131290000Y-85622500D01*
X140560000Y-85622500D02*
X141510000Y-85622500D01*
X132240000Y-95842500D02*
X131290000Y-95842500D01*
X141510000Y-95842500D02*
X141510000Y-94892500D01*
X140560000Y-95842500D02*
X141510000Y-95842500D01*
%TO.C,C6*%
X133860000Y-103148335D02*
X133860000Y-102916665D01*
X133140000Y-103148335D02*
X133140000Y-102916665D01*
%TO.C,C10*%
X128184165Y-92640000D02*
X128415835Y-92640000D01*
X128184165Y-93360000D02*
X128415835Y-93360000D01*
%TO.C,C11*%
X141840000Y-98448335D02*
X141840000Y-98216665D01*
X142560000Y-98448335D02*
X142560000Y-98216665D01*
%TO.C,D2*%
X136160000Y-75965000D02*
X134240000Y-75965000D01*
X134240000Y-75965000D02*
X134240000Y-78825000D01*
X136160000Y-78825000D02*
X136160000Y-75965000D01*
%TO.C,C1*%
X154584165Y-98240000D02*
X154815835Y-98240000D01*
X154584165Y-98960000D02*
X154815835Y-98960000D01*
%TO.C,C2*%
X155260000Y-95248335D02*
X155260000Y-95016665D01*
X154540000Y-95248335D02*
X154540000Y-95016665D01*
%TO.C,Y1*%
X119100000Y-94625000D02*
X124300000Y-94625000D01*
X124300000Y-94625000D02*
X124300000Y-85975000D01*
%TO.C,SW1*%
X132150000Y-79600000D02*
X132150000Y-75200000D01*
X130350000Y-75200000D02*
X130450000Y-75200000D01*
X130350000Y-79600000D02*
X130450000Y-79600000D01*
X128650000Y-75200000D02*
X128650000Y-79600000D01*
%TO.C,D3*%
X138360000Y-75965000D02*
X136440000Y-75965000D01*
X138360000Y-78825000D02*
X138360000Y-75965000D01*
X136440000Y-75965000D02*
X136440000Y-78825000D01*
%TO.C,R8*%
X134780000Y-82229879D02*
X134780000Y-82565121D01*
X134020000Y-82229879D02*
X134020000Y-82565121D01*
%TO.C,J1*%
X158337500Y-84500000D02*
X158337500Y-84950000D01*
X162737500Y-92300000D02*
X162487500Y-92300000D01*
X160187500Y-84500000D02*
X158337500Y-84500000D01*
X158337500Y-92300000D02*
X158337500Y-91850000D01*
X160187500Y-92300000D02*
X158337500Y-92300000D01*
X157787500Y-90100000D02*
X158237500Y-90100000D01*
X157787500Y-90100000D02*
X157787500Y-89650000D01*
X162737500Y-84500000D02*
X162487500Y-84500000D01*
%TO.C,U2*%
X146840000Y-91190000D02*
X146840000Y-92450000D01*
X150600000Y-91190000D02*
X146840000Y-91190000D01*
X146840000Y-98010000D02*
X146840000Y-96750000D01*
X152850000Y-98010000D02*
X146840000Y-98010000D01*
%TO.C,C4*%
X141560000Y-100984165D02*
X141560000Y-101215835D01*
X140840000Y-100984165D02*
X140840000Y-101215835D01*
%TO.C,C7*%
X144060000Y-97415835D02*
X144060000Y-97184165D01*
X143340000Y-97415835D02*
X143340000Y-97184165D01*
%TO.C,Q2*%
X124140000Y-107170000D02*
X124800000Y-107170000D01*
X126460000Y-108580000D02*
X126460000Y-107170000D01*
X125800000Y-107170000D02*
X126460000Y-107170000D01*
X124140000Y-107170000D02*
X124140000Y-109200000D01*
%TO.C,Q3*%
X126790000Y-107170000D02*
X126790000Y-109200000D01*
X126790000Y-107170000D02*
X127450000Y-107170000D01*
X129110000Y-108580000D02*
X129110000Y-107170000D01*
X128450000Y-107170000D02*
X129110000Y-107170000D01*
%TO.C,Q4*%
X129440000Y-107170000D02*
X130100000Y-107170000D01*
X129440000Y-107170000D02*
X129440000Y-109200000D01*
X131760000Y-108580000D02*
X131760000Y-107170000D01*
X131100000Y-107170000D02*
X131760000Y-107170000D01*
%TO.C,R1*%
X136080000Y-82570121D02*
X136080000Y-82234879D01*
X135320000Y-82570121D02*
X135320000Y-82234879D01*
%TO.C,D1*%
X157900000Y-96960000D02*
X157250000Y-96960000D01*
X157900000Y-93840000D02*
X157250000Y-93840000D01*
X157900000Y-96960000D02*
X159575000Y-96960000D01*
X157900000Y-93840000D02*
X158550000Y-93840000D01*
D10*
%TO.C,U1*%
X134950000Y-102150000D02*
X135475000Y-102150000D01*
X134950000Y-106450000D02*
X134950000Y-105925000D01*
X139250000Y-102150000D02*
X138725000Y-102150000D01*
X139250000Y-106450000D02*
X139250000Y-105925000D01*
X139250000Y-102150000D02*
X139250000Y-102675000D01*
X134950000Y-102150000D02*
X134950000Y-102675000D01*
X139250000Y-106450000D02*
X138725000Y-106450000D01*
D12*
%TO.C,C8*%
X131040000Y-82551665D02*
X131040000Y-82783335D01*
X131760000Y-82551665D02*
X131760000Y-82783335D01*
%TO.C,C5*%
X141560000Y-103715835D02*
X141560000Y-103484165D01*
X140840000Y-103715835D02*
X140840000Y-103484165D01*
%TO.C,C3*%
X139284165Y-100140000D02*
X139515835Y-100140000D01*
X139284165Y-100860000D02*
X139515835Y-100860000D01*
%TO.C,C14*%
X146360000Y-78684165D02*
X146360000Y-78915835D01*
X145640000Y-78684165D02*
X145640000Y-78915835D01*
%TO.C,Q1*%
X122670000Y-95650000D02*
X122670000Y-94990000D01*
X124080000Y-94990000D02*
X122670000Y-94990000D01*
X122670000Y-97310000D02*
X124700000Y-97310000D01*
X122670000Y-97310000D02*
X122670000Y-96650000D01*
%TO.C,R14*%
X128465121Y-87880000D02*
X128129879Y-87880000D01*
X128465121Y-87120000D02*
X128129879Y-87120000D01*
%TO.C,C9*%
X144583335Y-87360000D02*
X144351665Y-87360000D01*
X144583335Y-86640000D02*
X144351665Y-86640000D01*
%TO.C,Q5*%
X134360000Y-109380000D02*
X134360000Y-107970000D01*
X132040000Y-107970000D02*
X132700000Y-107970000D01*
X132040000Y-107970000D02*
X132040000Y-110000000D01*
X133700000Y-107970000D02*
X134360000Y-107970000D01*
%TO.C,R2*%
X136620000Y-82565121D02*
X136620000Y-82229879D01*
X137380000Y-82565121D02*
X137380000Y-82229879D01*
%TD*%
M02*
