%TF.GenerationSoftware,KiCad,Pcbnew,(6.0.1)*%
%TF.CreationDate,2022-08-29T10:58:40+03:00*%
%TF.ProjectId,flight controller,666c6967-6874-4206-936f-6e74726f6c6c,rev?*%
%TF.SameCoordinates,Original*%
%TF.FileFunction,Legend,Bot*%
%TF.FilePolarity,Positive*%
%FSLAX46Y46*%
G04 Gerber Fmt 4.6, Leading zero omitted, Abs format (unit mm)*
G04 Created by KiCad (PCBNEW (6.0.1)) date 2022-08-29 10:58:40*
%MOMM*%
%LPD*%
G01*
G04 APERTURE LIST*
%ADD10C,0.150000*%
%ADD11C,0.120000*%
G04 APERTURE END LIST*
D10*
%TO.C,Elv2*%
X134233333Y-110490000D02*
X134000000Y-110490000D01*
X133900000Y-110856666D02*
X134233333Y-110856666D01*
X134233333Y-110156666D01*
X133900000Y-110156666D01*
X133500000Y-110856666D02*
X133566666Y-110823333D01*
X133600000Y-110756666D01*
X133600000Y-110156666D01*
X133300000Y-110390000D02*
X133133333Y-110856666D01*
X132966666Y-110390000D01*
X132733333Y-110223333D02*
X132700000Y-110190000D01*
X132633333Y-110156666D01*
X132466666Y-110156666D01*
X132400000Y-110190000D01*
X132366666Y-110223333D01*
X132333333Y-110290000D01*
X132333333Y-110356666D01*
X132366666Y-110456666D01*
X132766666Y-110856666D01*
X132333333Y-110856666D01*
%TO.C,Panic*%
X147083333Y-110756666D02*
X147083333Y-110056666D01*
X146816666Y-110056666D01*
X146750000Y-110090000D01*
X146716666Y-110123333D01*
X146683333Y-110190000D01*
X146683333Y-110290000D01*
X146716666Y-110356666D01*
X146750000Y-110390000D01*
X146816666Y-110423333D01*
X147083333Y-110423333D01*
X146083333Y-110756666D02*
X146083333Y-110390000D01*
X146116666Y-110323333D01*
X146183333Y-110290000D01*
X146316666Y-110290000D01*
X146383333Y-110323333D01*
X146083333Y-110723333D02*
X146150000Y-110756666D01*
X146316666Y-110756666D01*
X146383333Y-110723333D01*
X146416666Y-110656666D01*
X146416666Y-110590000D01*
X146383333Y-110523333D01*
X146316666Y-110490000D01*
X146150000Y-110490000D01*
X146083333Y-110456666D01*
X145750000Y-110290000D02*
X145750000Y-110756666D01*
X145750000Y-110356666D02*
X145716666Y-110323333D01*
X145650000Y-110290000D01*
X145550000Y-110290000D01*
X145483333Y-110323333D01*
X145450000Y-110390000D01*
X145450000Y-110756666D01*
X145116666Y-110756666D02*
X145116666Y-110290000D01*
X145116666Y-110056666D02*
X145150000Y-110090000D01*
X145116666Y-110123333D01*
X145083333Y-110090000D01*
X145116666Y-110056666D01*
X145116666Y-110123333D01*
X144483333Y-110723333D02*
X144550000Y-110756666D01*
X144683333Y-110756666D01*
X144750000Y-110723333D01*
X144783333Y-110690000D01*
X144816666Y-110623333D01*
X144816666Y-110423333D01*
X144783333Y-110356666D01*
X144750000Y-110323333D01*
X144683333Y-110290000D01*
X144550000Y-110290000D01*
X144483333Y-110323333D01*
%TO.C,R3*%
X133116666Y-98816666D02*
X133350000Y-98483333D01*
X133516666Y-98816666D02*
X133516666Y-98116666D01*
X133250000Y-98116666D01*
X133183333Y-98150000D01*
X133150000Y-98183333D01*
X133116666Y-98250000D01*
X133116666Y-98350000D01*
X133150000Y-98416666D01*
X133183333Y-98450000D01*
X133250000Y-98483333D01*
X133516666Y-98483333D01*
X132883333Y-98116666D02*
X132450000Y-98116666D01*
X132683333Y-98383333D01*
X132583333Y-98383333D01*
X132516666Y-98416666D01*
X132483333Y-98450000D01*
X132450000Y-98516666D01*
X132450000Y-98683333D01*
X132483333Y-98750000D01*
X132516666Y-98783333D01*
X132583333Y-98816666D01*
X132783333Y-98816666D01*
X132850000Y-98783333D01*
X132883333Y-98750000D01*
%TO.C,Elv2*%
X135033333Y-70310000D02*
X134800000Y-70310000D01*
X134700000Y-70676666D02*
X135033333Y-70676666D01*
X135033333Y-69976666D01*
X134700000Y-69976666D01*
X134300000Y-70676666D02*
X134366666Y-70643333D01*
X134400000Y-70576666D01*
X134400000Y-69976666D01*
X134100000Y-70210000D02*
X133933333Y-70676666D01*
X133766666Y-70210000D01*
X133533333Y-70043333D02*
X133500000Y-70010000D01*
X133433333Y-69976666D01*
X133266666Y-69976666D01*
X133200000Y-70010000D01*
X133166666Y-70043333D01*
X133133333Y-70110000D01*
X133133333Y-70176666D01*
X133166666Y-70276666D01*
X133566666Y-70676666D01*
X133133333Y-70676666D01*
%TO.C,S4*%
X146333333Y-70883333D02*
X146233333Y-70916666D01*
X146066666Y-70916666D01*
X146000000Y-70883333D01*
X145966666Y-70850000D01*
X145933333Y-70783333D01*
X145933333Y-70716666D01*
X145966666Y-70650000D01*
X146000000Y-70616666D01*
X146066666Y-70583333D01*
X146200000Y-70550000D01*
X146266666Y-70516666D01*
X146300000Y-70483333D01*
X146333333Y-70416666D01*
X146333333Y-70350000D01*
X146300000Y-70283333D01*
X146266666Y-70250000D01*
X146200000Y-70216666D01*
X146033333Y-70216666D01*
X145933333Y-70250000D01*
X145333333Y-70450000D02*
X145333333Y-70916666D01*
X145500000Y-70183333D02*
X145666666Y-70683333D01*
X145233333Y-70683333D01*
%TO.C,R9*%
X121916666Y-97316666D02*
X122150000Y-96983333D01*
X122316666Y-97316666D02*
X122316666Y-96616666D01*
X122050000Y-96616666D01*
X121983333Y-96650000D01*
X121950000Y-96683333D01*
X121916666Y-96750000D01*
X121916666Y-96850000D01*
X121950000Y-96916666D01*
X121983333Y-96950000D01*
X122050000Y-96983333D01*
X122316666Y-96983333D01*
X121583333Y-97316666D02*
X121450000Y-97316666D01*
X121383333Y-97283333D01*
X121350000Y-97250000D01*
X121283333Y-97150000D01*
X121250000Y-97016666D01*
X121250000Y-96750000D01*
X121283333Y-96683333D01*
X121316666Y-96650000D01*
X121383333Y-96616666D01*
X121516666Y-96616666D01*
X121583333Y-96650000D01*
X121616666Y-96683333D01*
X121650000Y-96750000D01*
X121650000Y-96916666D01*
X121616666Y-96983333D01*
X121583333Y-97016666D01*
X121516666Y-97050000D01*
X121383333Y-97050000D01*
X121316666Y-97016666D01*
X121283333Y-96983333D01*
X121250000Y-96916666D01*
%TO.C,3.3V*%
X161856666Y-76266666D02*
X161856666Y-76700000D01*
X162123333Y-76466666D01*
X162123333Y-76566666D01*
X162156666Y-76633333D01*
X162190000Y-76666666D01*
X162256666Y-76700000D01*
X162423333Y-76700000D01*
X162490000Y-76666666D01*
X162523333Y-76633333D01*
X162556666Y-76566666D01*
X162556666Y-76366666D01*
X162523333Y-76300000D01*
X162490000Y-76266666D01*
X162490000Y-77000000D02*
X162523333Y-77033333D01*
X162556666Y-77000000D01*
X162523333Y-76966666D01*
X162490000Y-77000000D01*
X162556666Y-77000000D01*
X161856666Y-77266666D02*
X161856666Y-77700000D01*
X162123333Y-77466666D01*
X162123333Y-77566666D01*
X162156666Y-77633333D01*
X162190000Y-77666666D01*
X162256666Y-77700000D01*
X162423333Y-77700000D01*
X162490000Y-77666666D01*
X162523333Y-77633333D01*
X162556666Y-77566666D01*
X162556666Y-77366666D01*
X162523333Y-77300000D01*
X162490000Y-77266666D01*
X161856666Y-77900000D02*
X162556666Y-78133333D01*
X161856666Y-78366666D01*
%TO.C,C12*%
X149082500Y-86050000D02*
X149115833Y-86083333D01*
X149215833Y-86116666D01*
X149282500Y-86116666D01*
X149382500Y-86083333D01*
X149449166Y-86016666D01*
X149482500Y-85950000D01*
X149515833Y-85816666D01*
X149515833Y-85716666D01*
X149482500Y-85583333D01*
X149449166Y-85516666D01*
X149382500Y-85450000D01*
X149282500Y-85416666D01*
X149215833Y-85416666D01*
X149115833Y-85450000D01*
X149082500Y-85483333D01*
X148415833Y-86116666D02*
X148815833Y-86116666D01*
X148615833Y-86116666D02*
X148615833Y-85416666D01*
X148682500Y-85516666D01*
X148749166Y-85583333D01*
X148815833Y-85616666D01*
X148149166Y-85483333D02*
X148115833Y-85450000D01*
X148049166Y-85416666D01*
X147882500Y-85416666D01*
X147815833Y-85450000D01*
X147782500Y-85483333D01*
X147749166Y-85550000D01*
X147749166Y-85616666D01*
X147782500Y-85716666D01*
X148182500Y-86116666D01*
X147749166Y-86116666D01*
%TO.C,S1*%
X138033333Y-70883333D02*
X137933333Y-70916666D01*
X137766666Y-70916666D01*
X137700000Y-70883333D01*
X137666666Y-70850000D01*
X137633333Y-70783333D01*
X137633333Y-70716666D01*
X137666666Y-70650000D01*
X137700000Y-70616666D01*
X137766666Y-70583333D01*
X137900000Y-70550000D01*
X137966666Y-70516666D01*
X138000000Y-70483333D01*
X138033333Y-70416666D01*
X138033333Y-70350000D01*
X138000000Y-70283333D01*
X137966666Y-70250000D01*
X137900000Y-70216666D01*
X137733333Y-70216666D01*
X137633333Y-70250000D01*
X136966666Y-70916666D02*
X137366666Y-70916666D01*
X137166666Y-70916666D02*
X137166666Y-70216666D01*
X137233333Y-70316666D01*
X137300000Y-70383333D01*
X137366666Y-70416666D01*
%TO.C,U4*%
X143633333Y-75116666D02*
X143633333Y-75683333D01*
X143600000Y-75750000D01*
X143566666Y-75783333D01*
X143500000Y-75816666D01*
X143366666Y-75816666D01*
X143300000Y-75783333D01*
X143266666Y-75750000D01*
X143233333Y-75683333D01*
X143233333Y-75116666D01*
X142600000Y-75350000D02*
X142600000Y-75816666D01*
X142766666Y-75083333D02*
X142933333Y-75583333D01*
X142500000Y-75583333D01*
%TO.C, *%
%TO.C,AilR*%
X129366666Y-70476666D02*
X129033333Y-70476666D01*
X129433333Y-70676666D02*
X129200000Y-69976666D01*
X128966666Y-70676666D01*
X128733333Y-70676666D02*
X128733333Y-70210000D01*
X128733333Y-69976666D02*
X128766666Y-70010000D01*
X128733333Y-70043333D01*
X128700000Y-70010000D01*
X128733333Y-69976666D01*
X128733333Y-70043333D01*
X128300000Y-70676666D02*
X128366666Y-70643333D01*
X128400000Y-70576666D01*
X128400000Y-69976666D01*
X127633333Y-70676666D02*
X127866666Y-70343333D01*
X128033333Y-70676666D02*
X128033333Y-69976666D01*
X127766666Y-69976666D01*
X127700000Y-70010000D01*
X127666666Y-70043333D01*
X127633333Y-70110000D01*
X127633333Y-70210000D01*
X127666666Y-70276666D01*
X127700000Y-70310000D01*
X127766666Y-70343333D01*
X128033333Y-70343333D01*
%TO.C,SCL*%
X116043333Y-87366666D02*
X116076666Y-87466666D01*
X116076666Y-87633333D01*
X116043333Y-87700000D01*
X116010000Y-87733333D01*
X115943333Y-87766666D01*
X115876666Y-87766666D01*
X115810000Y-87733333D01*
X115776666Y-87700000D01*
X115743333Y-87633333D01*
X115710000Y-87500000D01*
X115676666Y-87433333D01*
X115643333Y-87400000D01*
X115576666Y-87366666D01*
X115510000Y-87366666D01*
X115443333Y-87400000D01*
X115410000Y-87433333D01*
X115376666Y-87500000D01*
X115376666Y-87666666D01*
X115410000Y-87766666D01*
X116010000Y-88466666D02*
X116043333Y-88433333D01*
X116076666Y-88333333D01*
X116076666Y-88266666D01*
X116043333Y-88166666D01*
X115976666Y-88100000D01*
X115910000Y-88066666D01*
X115776666Y-88033333D01*
X115676666Y-88033333D01*
X115543333Y-88066666D01*
X115476666Y-88100000D01*
X115410000Y-88166666D01*
X115376666Y-88266666D01*
X115376666Y-88333333D01*
X115410000Y-88433333D01*
X115443333Y-88466666D01*
X116076666Y-89100000D02*
X116076666Y-88766666D01*
X115376666Y-88766666D01*
%TO.C, *%
%TO.C,  *%
%TO.C,R6*%
X131119166Y-97516666D02*
X131352500Y-97183333D01*
X131519166Y-97516666D02*
X131519166Y-96816666D01*
X131252500Y-96816666D01*
X131185833Y-96850000D01*
X131152500Y-96883333D01*
X131119166Y-96950000D01*
X131119166Y-97050000D01*
X131152500Y-97116666D01*
X131185833Y-97150000D01*
X131252500Y-97183333D01*
X131519166Y-97183333D01*
X130519166Y-96816666D02*
X130652500Y-96816666D01*
X130719166Y-96850000D01*
X130752500Y-96883333D01*
X130819166Y-96983333D01*
X130852500Y-97116666D01*
X130852500Y-97383333D01*
X130819166Y-97450000D01*
X130785833Y-97483333D01*
X130719166Y-97516666D01*
X130585833Y-97516666D01*
X130519166Y-97483333D01*
X130485833Y-97450000D01*
X130452500Y-97383333D01*
X130452500Y-97216666D01*
X130485833Y-97150000D01*
X130519166Y-97116666D01*
X130585833Y-97083333D01*
X130719166Y-97083333D01*
X130785833Y-97116666D01*
X130819166Y-97150000D01*
X130852500Y-97216666D01*
%TO.C,C13*%
X145050000Y-100650000D02*
X145083333Y-100683333D01*
X145183333Y-100716666D01*
X145250000Y-100716666D01*
X145350000Y-100683333D01*
X145416666Y-100616666D01*
X145450000Y-100550000D01*
X145483333Y-100416666D01*
X145483333Y-100316666D01*
X145450000Y-100183333D01*
X145416666Y-100116666D01*
X145350000Y-100050000D01*
X145250000Y-100016666D01*
X145183333Y-100016666D01*
X145083333Y-100050000D01*
X145050000Y-100083333D01*
X144383333Y-100716666D02*
X144783333Y-100716666D01*
X144583333Y-100716666D02*
X144583333Y-100016666D01*
X144650000Y-100116666D01*
X144716666Y-100183333D01*
X144783333Y-100216666D01*
X144150000Y-100016666D02*
X143716666Y-100016666D01*
X143950000Y-100283333D01*
X143850000Y-100283333D01*
X143783333Y-100316666D01*
X143750000Y-100350000D01*
X143716666Y-100416666D01*
X143716666Y-100583333D01*
X143750000Y-100650000D01*
X143783333Y-100683333D01*
X143850000Y-100716666D01*
X144050000Y-100716666D01*
X144116666Y-100683333D01*
X144150000Y-100650000D01*
%TO.C,GND*%
X156890000Y-81766666D02*
X156856666Y-81700000D01*
X156856666Y-81600000D01*
X156890000Y-81500000D01*
X156956666Y-81433333D01*
X157023333Y-81400000D01*
X157156666Y-81366666D01*
X157256666Y-81366666D01*
X157390000Y-81400000D01*
X157456666Y-81433333D01*
X157523333Y-81500000D01*
X157556666Y-81600000D01*
X157556666Y-81666666D01*
X157523333Y-81766666D01*
X157490000Y-81800000D01*
X157256666Y-81800000D01*
X157256666Y-81666666D01*
X157556666Y-82100000D02*
X156856666Y-82100000D01*
X157556666Y-82500000D01*
X156856666Y-82500000D01*
X157556666Y-82833333D02*
X156856666Y-82833333D01*
X156856666Y-83000000D01*
X156890000Y-83100000D01*
X156956666Y-83166666D01*
X157023333Y-83200000D01*
X157156666Y-83233333D01*
X157256666Y-83233333D01*
X157390000Y-83200000D01*
X157456666Y-83166666D01*
X157523333Y-83100000D01*
X157556666Y-83000000D01*
X157556666Y-82833333D01*
%TO.C,R15*%
X136140357Y-85782380D02*
X136473690Y-85306190D01*
X136711785Y-85782380D02*
X136711785Y-84782380D01*
X136330833Y-84782380D01*
X136235595Y-84830000D01*
X136187976Y-84877619D01*
X136140357Y-84972857D01*
X136140357Y-85115714D01*
X136187976Y-85210952D01*
X136235595Y-85258571D01*
X136330833Y-85306190D01*
X136711785Y-85306190D01*
X135187976Y-85782380D02*
X135759404Y-85782380D01*
X135473690Y-85782380D02*
X135473690Y-84782380D01*
X135568928Y-84925238D01*
X135664166Y-85020476D01*
X135759404Y-85068095D01*
X134283214Y-84782380D02*
X134759404Y-84782380D01*
X134807023Y-85258571D01*
X134759404Y-85210952D01*
X134664166Y-85163333D01*
X134426071Y-85163333D01*
X134330833Y-85210952D01*
X134283214Y-85258571D01*
X134235595Y-85353809D01*
X134235595Y-85591904D01*
X134283214Y-85687142D01*
X134330833Y-85734761D01*
X134426071Y-85782380D01*
X134664166Y-85782380D01*
X134759404Y-85734761D01*
X134807023Y-85687142D01*
%TO.C,S2*%
X140833333Y-70883333D02*
X140733333Y-70916666D01*
X140566666Y-70916666D01*
X140500000Y-70883333D01*
X140466666Y-70850000D01*
X140433333Y-70783333D01*
X140433333Y-70716666D01*
X140466666Y-70650000D01*
X140500000Y-70616666D01*
X140566666Y-70583333D01*
X140700000Y-70550000D01*
X140766666Y-70516666D01*
X140800000Y-70483333D01*
X140833333Y-70416666D01*
X140833333Y-70350000D01*
X140800000Y-70283333D01*
X140766666Y-70250000D01*
X140700000Y-70216666D01*
X140533333Y-70216666D01*
X140433333Y-70250000D01*
X140166666Y-70283333D02*
X140133333Y-70250000D01*
X140066666Y-70216666D01*
X139900000Y-70216666D01*
X139833333Y-70250000D01*
X139800000Y-70283333D01*
X139766666Y-70350000D01*
X139766666Y-70416666D01*
X139800000Y-70516666D01*
X140200000Y-70916666D01*
X139766666Y-70916666D01*
%TO.C,Rx6*%
X116076666Y-90400000D02*
X115743333Y-90166666D01*
X116076666Y-90000000D02*
X115376666Y-90000000D01*
X115376666Y-90266666D01*
X115410000Y-90333333D01*
X115443333Y-90366666D01*
X115510000Y-90400000D01*
X115610000Y-90400000D01*
X115676666Y-90366666D01*
X115710000Y-90333333D01*
X115743333Y-90266666D01*
X115743333Y-90000000D01*
X116076666Y-90633333D02*
X115610000Y-91000000D01*
X115610000Y-90633333D02*
X116076666Y-91000000D01*
X115376666Y-91566666D02*
X115376666Y-91433333D01*
X115410000Y-91366666D01*
X115443333Y-91333333D01*
X115543333Y-91266666D01*
X115676666Y-91233333D01*
X115943333Y-91233333D01*
X116010000Y-91266666D01*
X116043333Y-91300000D01*
X116076666Y-91366666D01*
X116076666Y-91500000D01*
X116043333Y-91566666D01*
X116010000Y-91600000D01*
X115943333Y-91633333D01*
X115776666Y-91633333D01*
X115710000Y-91600000D01*
X115676666Y-91566666D01*
X115643333Y-91500000D01*
X115643333Y-91366666D01*
X115676666Y-91300000D01*
X115710000Y-91266666D01*
X115776666Y-91233333D01*
%TO.C, *%
%TO.C,AilR*%
X128766666Y-110656666D02*
X128433333Y-110656666D01*
X128833333Y-110856666D02*
X128600000Y-110156666D01*
X128366666Y-110856666D01*
X128133333Y-110856666D02*
X128133333Y-110390000D01*
X128133333Y-110156666D02*
X128166666Y-110190000D01*
X128133333Y-110223333D01*
X128100000Y-110190000D01*
X128133333Y-110156666D01*
X128133333Y-110223333D01*
X127700000Y-110856666D02*
X127766666Y-110823333D01*
X127800000Y-110756666D01*
X127800000Y-110156666D01*
X127033333Y-110856666D02*
X127266666Y-110523333D01*
X127433333Y-110856666D02*
X127433333Y-110156666D01*
X127166666Y-110156666D01*
X127100000Y-110190000D01*
X127066666Y-110223333D01*
X127033333Y-110290000D01*
X127033333Y-110390000D01*
X127066666Y-110456666D01*
X127100000Y-110490000D01*
X127166666Y-110523333D01*
X127433333Y-110523333D01*
%TO.C, *%
%TO.C,R7*%
X153116666Y-102316666D02*
X153350000Y-101983333D01*
X153516666Y-102316666D02*
X153516666Y-101616666D01*
X153250000Y-101616666D01*
X153183333Y-101650000D01*
X153150000Y-101683333D01*
X153116666Y-101750000D01*
X153116666Y-101850000D01*
X153150000Y-101916666D01*
X153183333Y-101950000D01*
X153250000Y-101983333D01*
X153516666Y-101983333D01*
X152883333Y-101616666D02*
X152416666Y-101616666D01*
X152716666Y-102316666D01*
%TO.C,5V*%
X161856666Y-80066666D02*
X161856666Y-79733333D01*
X162190000Y-79700000D01*
X162156666Y-79733333D01*
X162123333Y-79800000D01*
X162123333Y-79966666D01*
X162156666Y-80033333D01*
X162190000Y-80066666D01*
X162256666Y-80100000D01*
X162423333Y-80100000D01*
X162490000Y-80066666D01*
X162523333Y-80033333D01*
X162556666Y-79966666D01*
X162556666Y-79800000D01*
X162523333Y-79733333D01*
X162490000Y-79700000D01*
X161856666Y-80300000D02*
X162556666Y-80533333D01*
X161856666Y-80766666D01*
%TO.C,GND*%
X156890000Y-78966666D02*
X156856666Y-78900000D01*
X156856666Y-78800000D01*
X156890000Y-78700000D01*
X156956666Y-78633333D01*
X157023333Y-78600000D01*
X157156666Y-78566666D01*
X157256666Y-78566666D01*
X157390000Y-78600000D01*
X157456666Y-78633333D01*
X157523333Y-78700000D01*
X157556666Y-78800000D01*
X157556666Y-78866666D01*
X157523333Y-78966666D01*
X157490000Y-79000000D01*
X157256666Y-79000000D01*
X157256666Y-78866666D01*
X157556666Y-79300000D02*
X156856666Y-79300000D01*
X157556666Y-79700000D01*
X156856666Y-79700000D01*
X157556666Y-80033333D02*
X156856666Y-80033333D01*
X156856666Y-80200000D01*
X156890000Y-80300000D01*
X156956666Y-80366666D01*
X157023333Y-80400000D01*
X157156666Y-80433333D01*
X157256666Y-80433333D01*
X157390000Y-80400000D01*
X157456666Y-80366666D01*
X157523333Y-80300000D01*
X157556666Y-80200000D01*
X157556666Y-80033333D01*
%TO.C,Elv1*%
X131533333Y-110490000D02*
X131300000Y-110490000D01*
X131200000Y-110856666D02*
X131533333Y-110856666D01*
X131533333Y-110156666D01*
X131200000Y-110156666D01*
X130800000Y-110856666D02*
X130866666Y-110823333D01*
X130900000Y-110756666D01*
X130900000Y-110156666D01*
X130600000Y-110390000D02*
X130433333Y-110856666D01*
X130266666Y-110390000D01*
X129633333Y-110856666D02*
X130033333Y-110856666D01*
X129833333Y-110856666D02*
X129833333Y-110156666D01*
X129900000Y-110256666D01*
X129966666Y-110323333D01*
X130033333Y-110356666D01*
%TO.C,Tx6*%
X115376666Y-92583333D02*
X115376666Y-92983333D01*
X116076666Y-92783333D02*
X115376666Y-92783333D01*
X116076666Y-93150000D02*
X115610000Y-93516666D01*
X115610000Y-93150000D02*
X116076666Y-93516666D01*
X115376666Y-94083333D02*
X115376666Y-93950000D01*
X115410000Y-93883333D01*
X115443333Y-93850000D01*
X115543333Y-93783333D01*
X115676666Y-93750000D01*
X115943333Y-93750000D01*
X116010000Y-93783333D01*
X116043333Y-93816666D01*
X116076666Y-93883333D01*
X116076666Y-94016666D01*
X116043333Y-94083333D01*
X116010000Y-94116666D01*
X115943333Y-94150000D01*
X115776666Y-94150000D01*
X115710000Y-94116666D01*
X115676666Y-94083333D01*
X115643333Y-94016666D01*
X115643333Y-93883333D01*
X115676666Y-93816666D01*
X115710000Y-93783333D01*
X115776666Y-93750000D01*
%TO.C, *%
%TO.C,R10*%
X124450000Y-99816666D02*
X124683333Y-99483333D01*
X124850000Y-99816666D02*
X124850000Y-99116666D01*
X124583333Y-99116666D01*
X124516666Y-99150000D01*
X124483333Y-99183333D01*
X124450000Y-99250000D01*
X124450000Y-99350000D01*
X124483333Y-99416666D01*
X124516666Y-99450000D01*
X124583333Y-99483333D01*
X124850000Y-99483333D01*
X123783333Y-99816666D02*
X124183333Y-99816666D01*
X123983333Y-99816666D02*
X123983333Y-99116666D01*
X124050000Y-99216666D01*
X124116666Y-99283333D01*
X124183333Y-99316666D01*
X123350000Y-99116666D02*
X123283333Y-99116666D01*
X123216666Y-99150000D01*
X123183333Y-99183333D01*
X123150000Y-99250000D01*
X123116666Y-99383333D01*
X123116666Y-99550000D01*
X123150000Y-99683333D01*
X123183333Y-99750000D01*
X123216666Y-99783333D01*
X123283333Y-99816666D01*
X123350000Y-99816666D01*
X123416666Y-99783333D01*
X123450000Y-99750000D01*
X123483333Y-99683333D01*
X123516666Y-99550000D01*
X123516666Y-99383333D01*
X123483333Y-99250000D01*
X123450000Y-99183333D01*
X123416666Y-99150000D01*
X123350000Y-99116666D01*
%TO.C,R12*%
X122550000Y-87616666D02*
X122783333Y-87283333D01*
X122950000Y-87616666D02*
X122950000Y-86916666D01*
X122683333Y-86916666D01*
X122616666Y-86950000D01*
X122583333Y-86983333D01*
X122550000Y-87050000D01*
X122550000Y-87150000D01*
X122583333Y-87216666D01*
X122616666Y-87250000D01*
X122683333Y-87283333D01*
X122950000Y-87283333D01*
X121883333Y-87616666D02*
X122283333Y-87616666D01*
X122083333Y-87616666D02*
X122083333Y-86916666D01*
X122150000Y-87016666D01*
X122216666Y-87083333D01*
X122283333Y-87116666D01*
X121616666Y-86983333D02*
X121583333Y-86950000D01*
X121516666Y-86916666D01*
X121350000Y-86916666D01*
X121283333Y-86950000D01*
X121250000Y-86983333D01*
X121216666Y-87050000D01*
X121216666Y-87116666D01*
X121250000Y-87216666D01*
X121650000Y-87616666D01*
X121216666Y-87616666D01*
%TO.C,Rx1*%
X116076666Y-98100000D02*
X115743333Y-97866666D01*
X116076666Y-97700000D02*
X115376666Y-97700000D01*
X115376666Y-97966666D01*
X115410000Y-98033333D01*
X115443333Y-98066666D01*
X115510000Y-98100000D01*
X115610000Y-98100000D01*
X115676666Y-98066666D01*
X115710000Y-98033333D01*
X115743333Y-97966666D01*
X115743333Y-97700000D01*
X116076666Y-98333333D02*
X115610000Y-98700000D01*
X115610000Y-98333333D02*
X116076666Y-98700000D01*
X116076666Y-99333333D02*
X116076666Y-98933333D01*
X116076666Y-99133333D02*
X115376666Y-99133333D01*
X115476666Y-99066666D01*
X115543333Y-99000000D01*
X115576666Y-98933333D01*
%TO.C,SDA*%
X116043333Y-84650000D02*
X116076666Y-84750000D01*
X116076666Y-84916666D01*
X116043333Y-84983333D01*
X116010000Y-85016666D01*
X115943333Y-85050000D01*
X115876666Y-85050000D01*
X115810000Y-85016666D01*
X115776666Y-84983333D01*
X115743333Y-84916666D01*
X115710000Y-84783333D01*
X115676666Y-84716666D01*
X115643333Y-84683333D01*
X115576666Y-84650000D01*
X115510000Y-84650000D01*
X115443333Y-84683333D01*
X115410000Y-84716666D01*
X115376666Y-84783333D01*
X115376666Y-84950000D01*
X115410000Y-85050000D01*
X116076666Y-85350000D02*
X115376666Y-85350000D01*
X115376666Y-85516666D01*
X115410000Y-85616666D01*
X115476666Y-85683333D01*
X115543333Y-85716666D01*
X115676666Y-85750000D01*
X115776666Y-85750000D01*
X115910000Y-85716666D01*
X115976666Y-85683333D01*
X116043333Y-85616666D01*
X116076666Y-85516666D01*
X116076666Y-85350000D01*
X115876666Y-86016666D02*
X115876666Y-86350000D01*
X116076666Y-85950000D02*
X115376666Y-86183333D01*
X116076666Y-86416666D01*
%TO.C,R13*%
X141916666Y-106652500D02*
X141583333Y-106419166D01*
X141916666Y-106252500D02*
X141216666Y-106252500D01*
X141216666Y-106519166D01*
X141250000Y-106585833D01*
X141283333Y-106619166D01*
X141350000Y-106652500D01*
X141450000Y-106652500D01*
X141516666Y-106619166D01*
X141550000Y-106585833D01*
X141583333Y-106519166D01*
X141583333Y-106252500D01*
X141916666Y-107319166D02*
X141916666Y-106919166D01*
X141916666Y-107119166D02*
X141216666Y-107119166D01*
X141316666Y-107052500D01*
X141383333Y-106985833D01*
X141416666Y-106919166D01*
X141216666Y-107552500D02*
X141216666Y-107985833D01*
X141483333Y-107752500D01*
X141483333Y-107852500D01*
X141516666Y-107919166D01*
X141550000Y-107952500D01*
X141616666Y-107985833D01*
X141783333Y-107985833D01*
X141850000Y-107952500D01*
X141883333Y-107919166D01*
X141916666Y-107852500D01*
X141916666Y-107652500D01*
X141883333Y-107585833D01*
X141850000Y-107552500D01*
%TO.C,R11*%
X122650000Y-84916666D02*
X122883333Y-84583333D01*
X123050000Y-84916666D02*
X123050000Y-84216666D01*
X122783333Y-84216666D01*
X122716666Y-84250000D01*
X122683333Y-84283333D01*
X122650000Y-84350000D01*
X122650000Y-84450000D01*
X122683333Y-84516666D01*
X122716666Y-84550000D01*
X122783333Y-84583333D01*
X123050000Y-84583333D01*
X121983333Y-84916666D02*
X122383333Y-84916666D01*
X122183333Y-84916666D02*
X122183333Y-84216666D01*
X122250000Y-84316666D01*
X122316666Y-84383333D01*
X122383333Y-84416666D01*
X121316666Y-84916666D02*
X121716666Y-84916666D01*
X121516666Y-84916666D02*
X121516666Y-84216666D01*
X121583333Y-84316666D01*
X121650000Y-84383333D01*
X121716666Y-84416666D01*
%TO.C,AilL*%
X126300000Y-70476666D02*
X125966666Y-70476666D01*
X126366666Y-70676666D02*
X126133333Y-69976666D01*
X125900000Y-70676666D01*
X125666666Y-70676666D02*
X125666666Y-70210000D01*
X125666666Y-69976666D02*
X125700000Y-70010000D01*
X125666666Y-70043333D01*
X125633333Y-70010000D01*
X125666666Y-69976666D01*
X125666666Y-70043333D01*
X125233333Y-70676666D02*
X125300000Y-70643333D01*
X125333333Y-70576666D01*
X125333333Y-69976666D01*
X124633333Y-70676666D02*
X124966666Y-70676666D01*
X124966666Y-69976666D01*
%TO.C, *%
%TO.C,Curr*%
X143633333Y-110690000D02*
X143666666Y-110723333D01*
X143766666Y-110756666D01*
X143833333Y-110756666D01*
X143933333Y-110723333D01*
X144000000Y-110656666D01*
X144033333Y-110590000D01*
X144066666Y-110456666D01*
X144066666Y-110356666D01*
X144033333Y-110223333D01*
X144000000Y-110156666D01*
X143933333Y-110090000D01*
X143833333Y-110056666D01*
X143766666Y-110056666D01*
X143666666Y-110090000D01*
X143633333Y-110123333D01*
X143033333Y-110290000D02*
X143033333Y-110756666D01*
X143333333Y-110290000D02*
X143333333Y-110656666D01*
X143300000Y-110723333D01*
X143233333Y-110756666D01*
X143133333Y-110756666D01*
X143066666Y-110723333D01*
X143033333Y-110690000D01*
X142700000Y-110756666D02*
X142700000Y-110290000D01*
X142700000Y-110423333D02*
X142666666Y-110356666D01*
X142633333Y-110323333D01*
X142566666Y-110290000D01*
X142500000Y-110290000D01*
X142266666Y-110756666D02*
X142266666Y-110290000D01*
X142266666Y-110423333D02*
X142233333Y-110356666D01*
X142200000Y-110323333D01*
X142133333Y-110290000D01*
X142066666Y-110290000D01*
%TO.C,AilL*%
X126100000Y-110656666D02*
X125766666Y-110656666D01*
X126166666Y-110856666D02*
X125933333Y-110156666D01*
X125700000Y-110856666D01*
X125466666Y-110856666D02*
X125466666Y-110390000D01*
X125466666Y-110156666D02*
X125500000Y-110190000D01*
X125466666Y-110223333D01*
X125433333Y-110190000D01*
X125466666Y-110156666D01*
X125466666Y-110223333D01*
X125033333Y-110856666D02*
X125100000Y-110823333D01*
X125133333Y-110756666D01*
X125133333Y-110156666D01*
X124433333Y-110856666D02*
X124766666Y-110856666D01*
X124766666Y-110156666D01*
%TO.C,Rx3*%
X116076666Y-82500000D02*
X115743333Y-82266666D01*
X116076666Y-82100000D02*
X115376666Y-82100000D01*
X115376666Y-82366666D01*
X115410000Y-82433333D01*
X115443333Y-82466666D01*
X115510000Y-82500000D01*
X115610000Y-82500000D01*
X115676666Y-82466666D01*
X115710000Y-82433333D01*
X115743333Y-82366666D01*
X115743333Y-82100000D01*
X116076666Y-82733333D02*
X115610000Y-83100000D01*
X115610000Y-82733333D02*
X116076666Y-83100000D01*
X115376666Y-83300000D02*
X115376666Y-83733333D01*
X115643333Y-83500000D01*
X115643333Y-83600000D01*
X115676666Y-83666666D01*
X115710000Y-83700000D01*
X115776666Y-83733333D01*
X115943333Y-83733333D01*
X116010000Y-83700000D01*
X116043333Y-83666666D01*
X116076666Y-83600000D01*
X116076666Y-83400000D01*
X116043333Y-83333333D01*
X116010000Y-83300000D01*
%TO.C,Tx3*%
X115376666Y-79383333D02*
X115376666Y-79783333D01*
X116076666Y-79583333D02*
X115376666Y-79583333D01*
X116076666Y-79950000D02*
X115610000Y-80316666D01*
X115610000Y-79950000D02*
X116076666Y-80316666D01*
X115376666Y-80516666D02*
X115376666Y-80950000D01*
X115643333Y-80716666D01*
X115643333Y-80816666D01*
X115676666Y-80883333D01*
X115710000Y-80916666D01*
X115776666Y-80950000D01*
X115943333Y-80950000D01*
X116010000Y-80916666D01*
X116043333Y-80883333D01*
X116076666Y-80816666D01*
X116076666Y-80616666D01*
X116043333Y-80550000D01*
X116010000Y-80516666D01*
%TO.C,Tx1*%
X115376666Y-100083333D02*
X115376666Y-100483333D01*
X116076666Y-100283333D02*
X115376666Y-100283333D01*
X116076666Y-100650000D02*
X115610000Y-101016666D01*
X115610000Y-100650000D02*
X116076666Y-101016666D01*
X116076666Y-101650000D02*
X116076666Y-101250000D01*
X116076666Y-101450000D02*
X115376666Y-101450000D01*
X115476666Y-101383333D01*
X115543333Y-101316666D01*
X115576666Y-101250000D01*
%TO.C,SBus*%
X116043333Y-94950000D02*
X116076666Y-95050000D01*
X116076666Y-95216666D01*
X116043333Y-95283333D01*
X116010000Y-95316666D01*
X115943333Y-95350000D01*
X115876666Y-95350000D01*
X115810000Y-95316666D01*
X115776666Y-95283333D01*
X115743333Y-95216666D01*
X115710000Y-95083333D01*
X115676666Y-95016666D01*
X115643333Y-94983333D01*
X115576666Y-94950000D01*
X115510000Y-94950000D01*
X115443333Y-94983333D01*
X115410000Y-95016666D01*
X115376666Y-95083333D01*
X115376666Y-95250000D01*
X115410000Y-95350000D01*
X115710000Y-95883333D02*
X115743333Y-95983333D01*
X115776666Y-96016666D01*
X115843333Y-96050000D01*
X115943333Y-96050000D01*
X116010000Y-96016666D01*
X116043333Y-95983333D01*
X116076666Y-95916666D01*
X116076666Y-95650000D01*
X115376666Y-95650000D01*
X115376666Y-95883333D01*
X115410000Y-95950000D01*
X115443333Y-95983333D01*
X115510000Y-96016666D01*
X115576666Y-96016666D01*
X115643333Y-95983333D01*
X115676666Y-95950000D01*
X115710000Y-95883333D01*
X115710000Y-95650000D01*
X115610000Y-96650000D02*
X116076666Y-96650000D01*
X115610000Y-96350000D02*
X115976666Y-96350000D01*
X116043333Y-96383333D01*
X116076666Y-96450000D01*
X116076666Y-96550000D01*
X116043333Y-96616666D01*
X116010000Y-96650000D01*
X116043333Y-96950000D02*
X116076666Y-97016666D01*
X116076666Y-97150000D01*
X116043333Y-97216666D01*
X115976666Y-97250000D01*
X115943333Y-97250000D01*
X115876666Y-97216666D01*
X115843333Y-97150000D01*
X115843333Y-97050000D01*
X115810000Y-96983333D01*
X115743333Y-96950000D01*
X115710000Y-96950000D01*
X115643333Y-96983333D01*
X115610000Y-97050000D01*
X115610000Y-97150000D01*
X115643333Y-97216666D01*
%TO.C, *%
%TO.C,S3*%
X143633333Y-70883333D02*
X143533333Y-70916666D01*
X143366666Y-70916666D01*
X143300000Y-70883333D01*
X143266666Y-70850000D01*
X143233333Y-70783333D01*
X143233333Y-70716666D01*
X143266666Y-70650000D01*
X143300000Y-70616666D01*
X143366666Y-70583333D01*
X143500000Y-70550000D01*
X143566666Y-70516666D01*
X143600000Y-70483333D01*
X143633333Y-70416666D01*
X143633333Y-70350000D01*
X143600000Y-70283333D01*
X143566666Y-70250000D01*
X143500000Y-70216666D01*
X143333333Y-70216666D01*
X143233333Y-70250000D01*
X143000000Y-70216666D02*
X142566666Y-70216666D01*
X142800000Y-70483333D01*
X142700000Y-70483333D01*
X142633333Y-70516666D01*
X142600000Y-70550000D01*
X142566666Y-70616666D01*
X142566666Y-70783333D01*
X142600000Y-70850000D01*
X142633333Y-70883333D01*
X142700000Y-70916666D01*
X142900000Y-70916666D01*
X142966666Y-70883333D01*
X143000000Y-70850000D01*
%TO.C, *%
%TO.C,Elv1*%
X132233333Y-70310000D02*
X132000000Y-70310000D01*
X131900000Y-70676666D02*
X132233333Y-70676666D01*
X132233333Y-69976666D01*
X131900000Y-69976666D01*
X131500000Y-70676666D02*
X131566666Y-70643333D01*
X131600000Y-70576666D01*
X131600000Y-69976666D01*
X131300000Y-70210000D02*
X131133333Y-70676666D01*
X130966666Y-70210000D01*
X130333333Y-70676666D02*
X130733333Y-70676666D01*
X130533333Y-70676666D02*
X130533333Y-69976666D01*
X130600000Y-70076666D01*
X130666666Y-70143333D01*
X130733333Y-70176666D01*
%TO.C, *%
D11*
%TO.C,R3*%
X133370121Y-99780000D02*
X133034879Y-99780000D01*
X133370121Y-99020000D02*
X133034879Y-99020000D01*
%TO.C,R9*%
X121629879Y-95720000D02*
X121965121Y-95720000D01*
X121629879Y-96480000D02*
X121965121Y-96480000D01*
%TO.C,C12*%
X148748335Y-86440000D02*
X148516665Y-86440000D01*
X148748335Y-87160000D02*
X148516665Y-87160000D01*
%TO.C,U4*%
X143100000Y-76115000D02*
X146700000Y-76115000D01*
X143100000Y-82885000D02*
X145300000Y-82885000D01*
X143100000Y-76115000D02*
X140900000Y-76115000D01*
X143100000Y-82885000D02*
X140900000Y-82885000D01*
%TO.C,R6*%
X131170121Y-98580000D02*
X130834879Y-98580000D01*
X131170121Y-97820000D02*
X130834879Y-97820000D01*
%TO.C,C13*%
X144648335Y-99140000D02*
X144416665Y-99140000D01*
X144648335Y-99860000D02*
X144416665Y-99860000D01*
%TO.C,R15*%
X135665121Y-86880000D02*
X135329879Y-86880000D01*
X135665121Y-86120000D02*
X135329879Y-86120000D01*
%TO.C,R7*%
X152732379Y-100620000D02*
X153067621Y-100620000D01*
X152732379Y-101380000D02*
X153067621Y-101380000D01*
%TO.C,R10*%
X124167621Y-98880000D02*
X123832379Y-98880000D01*
X124167621Y-98120000D02*
X123832379Y-98120000D01*
%TO.C,R12*%
X122267621Y-88580000D02*
X121932379Y-88580000D01*
X122267621Y-87820000D02*
X121932379Y-87820000D01*
%TO.C,R13*%
X140220000Y-107270121D02*
X140220000Y-106934879D01*
X140980000Y-107270121D02*
X140980000Y-106934879D01*
%TO.C,R11*%
X122367621Y-85980000D02*
X122032379Y-85980000D01*
X122367621Y-85220000D02*
X122032379Y-85220000D01*
%TD*%
M02*
