%TF.GenerationSoftware,KiCad,Pcbnew,(6.0.1)*%
%TF.CreationDate,2022-08-29T10:58:40+03:00*%
%TF.ProjectId,flight controller,666c6967-6874-4206-936f-6e74726f6c6c,rev?*%
%TF.SameCoordinates,Original*%
%TF.FileFunction,Copper,L2,Bot*%
%TF.FilePolarity,Positive*%
%FSLAX46Y46*%
G04 Gerber Fmt 4.6, Leading zero omitted, Abs format (unit mm)*
G04 Created by KiCad (PCBNEW (6.0.1)) date 2022-08-29 10:58:40*
%MOMM*%
%LPD*%
G01*
G04 APERTURE LIST*
G04 Aperture macros list*
%AMRoundRect*
0 Rectangle with rounded corners*
0 $1 Rounding radius*
0 $2 $3 $4 $5 $6 $7 $8 $9 X,Y pos of 4 corners*
0 Add a 4 corners polygon primitive as box body*
4,1,4,$2,$3,$4,$5,$6,$7,$8,$9,$2,$3,0*
0 Add four circle primitives for the rounded corners*
1,1,$1+$1,$2,$3*
1,1,$1+$1,$4,$5*
1,1,$1+$1,$6,$7*
1,1,$1+$1,$8,$9*
0 Add four rect primitives between the rounded corners*
20,1,$1+$1,$2,$3,$4,$5,0*
20,1,$1+$1,$4,$5,$6,$7,0*
20,1,$1+$1,$6,$7,$8,$9,0*
20,1,$1+$1,$8,$9,$2,$3,0*%
G04 Aperture macros list end*
%TA.AperFunction,ComponentPad*%
%ADD10O,1.900000X1.200000*%
%TD*%
%TA.AperFunction,ComponentPad*%
%ADD11C,1.450000*%
%TD*%
%TA.AperFunction,SMDPad,CuDef*%
%ADD12RoundRect,0.500000X-0.500000X-1.250000X0.500000X-1.250000X0.500000X1.250000X-0.500000X1.250000X0*%
%TD*%
%TA.AperFunction,SMDPad,CuDef*%
%ADD13RoundRect,0.160000X0.197500X0.160000X-0.197500X0.160000X-0.197500X-0.160000X0.197500X-0.160000X0*%
%TD*%
%TA.AperFunction,SMDPad,CuDef*%
%ADD14RoundRect,0.500000X0.500000X1.250000X-0.500000X1.250000X-0.500000X-1.250000X0.500000X-1.250000X0*%
%TD*%
%TA.AperFunction,SMDPad,CuDef*%
%ADD15RoundRect,0.160000X-0.197500X-0.160000X0.197500X-0.160000X0.197500X0.160000X-0.197500X0.160000X0*%
%TD*%
%TA.AperFunction,SMDPad,CuDef*%
%ADD16RoundRect,0.500000X1.250000X-0.500000X1.250000X0.500000X-1.250000X0.500000X-1.250000X-0.500000X0*%
%TD*%
%TA.AperFunction,SMDPad,CuDef*%
%ADD17RoundRect,0.155000X0.212500X0.155000X-0.212500X0.155000X-0.212500X-0.155000X0.212500X-0.155000X0*%
%TD*%
%TA.AperFunction,SMDPad,CuDef*%
%ADD18RoundRect,0.100000X0.637500X0.100000X-0.637500X0.100000X-0.637500X-0.100000X0.637500X-0.100000X0*%
%TD*%
%TA.AperFunction,SMDPad,CuDef*%
%ADD19RoundRect,0.500000X-1.250000X0.500000X-1.250000X-0.500000X1.250000X-0.500000X1.250000X0.500000X0*%
%TD*%
%TA.AperFunction,SMDPad,CuDef*%
%ADD20RoundRect,0.160000X0.160000X-0.197500X0.160000X0.197500X-0.160000X0.197500X-0.160000X-0.197500X0*%
%TD*%
%TA.AperFunction,ViaPad*%
%ADD21C,0.800000*%
%TD*%
%TA.AperFunction,Conductor*%
%ADD22C,0.152400*%
%TD*%
%TA.AperFunction,Conductor*%
%ADD23C,0.250000*%
%TD*%
G04 APERTURE END LIST*
D10*
%TO.P,J1,6,Shield*%
%TO.N,unconnected-(J1-Pad6)*%
X161337500Y-91900000D03*
D11*
X158637500Y-85900000D03*
D10*
X161337500Y-84900000D03*
D11*
X158637500Y-90900000D03*
%TD*%
D12*
%TO.P,Elv2,1,Pin_1*%
%TO.N,PWM4_R*%
X133300000Y-108000000D03*
%TD*%
%TO.P,Panic,1,Pin_1*%
%TO.N,Panic*%
X145800000Y-107900000D03*
%TD*%
D13*
%TO.P,R3,1*%
%TO.N,VDD*%
X133800000Y-99400000D03*
%TO.P,R3,2*%
%TO.N,GYRO_CS*%
X132605000Y-99400000D03*
%TD*%
D14*
%TO.P,Elv2,1,Pin_1*%
%TO.N,PWM4_5V*%
X134100000Y-72900000D03*
%TD*%
%TO.P,S4,1,Pin_1*%
%TO.N,S4*%
X145900000Y-72900000D03*
%TD*%
D15*
%TO.P,R9,1*%
%TO.N,S_BUS*%
X121200000Y-96100000D03*
%TO.P,R9,2*%
%TO.N,Net-(Q1-Pad1)*%
X122395000Y-96100000D03*
%TD*%
D16*
%TO.P,3.3V,1,Pin_1*%
%TO.N,VDD*%
X159700000Y-77300000D03*
%TD*%
D17*
%TO.P,C12,1*%
%TO.N,Earth*%
X149200000Y-86800000D03*
%TO.P,C12,2*%
%TO.N,Net-(C12-Pad2)*%
X148065000Y-86800000D03*
%TD*%
D14*
%TO.P,S1,1,Pin_1*%
%TO.N,S1*%
X137500000Y-72900000D03*
%TD*%
D18*
%TO.P,U4,1,A1*%
%TO.N,PWM1_3.3V*%
X145962500Y-76575000D03*
%TO.P,U4,2,VCCA*%
%TO.N,VDD*%
X145962500Y-77225000D03*
%TO.P,U4,3,A2*%
%TO.N,PWM2_3.3V*%
X145962500Y-77875000D03*
%TO.P,U4,4,A3*%
%TO.N,PWM3_3.3V*%
X145962500Y-78525000D03*
%TO.P,U4,5,A4*%
%TO.N,PWM4_3.3V*%
X145962500Y-79175000D03*
%TO.P,U4,6,A5*%
%TO.N,unconnected-(U4-Pad6)*%
X145962500Y-79825000D03*
%TO.P,U4,7,A6*%
%TO.N,unconnected-(U4-Pad7)*%
X145962500Y-80475000D03*
%TO.P,U4,8,A7*%
%TO.N,unconnected-(U4-Pad8)*%
X145962500Y-81125000D03*
%TO.P,U4,9,A8*%
%TO.N,unconnected-(U4-Pad9)*%
X145962500Y-81775000D03*
%TO.P,U4,10,OE*%
%TO.N,Net-(R15-Pad2)*%
X145962500Y-82425000D03*
%TO.P,U4,11,GND*%
%TO.N,Earth*%
X140237500Y-82425000D03*
%TO.P,U4,12,B8*%
%TO.N,unconnected-(U4-Pad12)*%
X140237500Y-81775000D03*
%TO.P,U4,13,B7*%
%TO.N,unconnected-(U4-Pad13)*%
X140237500Y-81125000D03*
%TO.P,U4,14,B6*%
%TO.N,unconnected-(U4-Pad14)*%
X140237500Y-80475000D03*
%TO.P,U4,15,B5*%
%TO.N,unconnected-(U4-Pad15)*%
X140237500Y-79825000D03*
%TO.P,U4,16,B4*%
%TO.N,PWM4_5V*%
X140237500Y-79175000D03*
%TO.P,U4,17,B3*%
%TO.N,PWM3_5V*%
X140237500Y-78525000D03*
%TO.P,U4,18,B2*%
%TO.N,PWM2_5V*%
X140237500Y-77875000D03*
%TO.P,U4,19,VCCB*%
%TO.N,5V*%
X140237500Y-77225000D03*
%TO.P,U4,20,B1*%
%TO.N,PWM1_5V*%
X140237500Y-76575000D03*
%TD*%
D14*
%TO.P, ,1,Pin_1*%
%TO.N,Earth*%
X128500000Y-81300000D03*
%TD*%
%TO.P,AilR,1,Pin_1*%
%TO.N,PWM2_5V*%
X128500000Y-72900000D03*
%TD*%
D19*
%TO.P,SCL,1,Pin_1*%
%TO.N,SCL_Pad*%
X118300000Y-88200000D03*
%TD*%
D14*
%TO.P, ,1,Pin_1*%
%TO.N,Earth*%
X133300000Y-104200000D03*
%TD*%
%TO.P,  ,1,Pin_1*%
%TO.N,Earth*%
X125300000Y-104200000D03*
%TD*%
D13*
%TO.P,R6,1*%
%TO.N,Net-(R6-Pad1)*%
X131600000Y-98200000D03*
%TO.P,R6,2*%
%TO.N,Earth*%
X130405000Y-98200000D03*
%TD*%
D17*
%TO.P,C13,1*%
%TO.N,Earth*%
X145100000Y-99500000D03*
%TO.P,C13,2*%
%TO.N,Net-(C13-Pad2)*%
X143965000Y-99500000D03*
%TD*%
D16*
%TO.P,GND,1,Pin_1*%
%TO.N,Earth*%
X154700000Y-82300000D03*
%TD*%
D13*
%TO.P,R15,1*%
%TO.N,Earth*%
X136095000Y-86500000D03*
%TO.P,R15,2*%
%TO.N,Net-(R15-Pad2)*%
X134900000Y-86500000D03*
%TD*%
D14*
%TO.P,S2,1,Pin_1*%
%TO.N,S2*%
X140300000Y-72900000D03*
%TD*%
D19*
%TO.P,Rx6,1,Pin_1*%
%TO.N,Uart_Rx6*%
X118300000Y-90800000D03*
%TD*%
D14*
%TO.P, ,1,Pin_1*%
%TO.N,Earth*%
X134100000Y-81300000D03*
%TD*%
%TO.P, ,1,Pin_1*%
%TO.N,5V*%
X131300000Y-77100000D03*
%TD*%
D12*
%TO.P,AilR,1,Pin_1*%
%TO.N,PWM2_R*%
X127900000Y-108000000D03*
%TD*%
D14*
%TO.P, ,1,Pin_1*%
%TO.N,Earth*%
X125500000Y-81300000D03*
%TD*%
D15*
%TO.P,R7,1*%
%TO.N,Net-(R6-Pad1)*%
X152302500Y-101000000D03*
%TO.P,R7,2*%
%TO.N,5V_USB*%
X153497500Y-101000000D03*
%TD*%
D16*
%TO.P,5V,1,Pin_1*%
%TO.N,5V*%
X159700000Y-80200000D03*
%TD*%
%TO.P,GND,1,Pin_1*%
%TO.N,Earth*%
X154700000Y-79500000D03*
%TD*%
D12*
%TO.P,Elv1,1,Pin_1*%
%TO.N,PWM3_R*%
X130600000Y-108000000D03*
%TD*%
D19*
%TO.P,Tx6,1,Pin_1*%
%TO.N,Uart_Tx6*%
X118300000Y-93400000D03*
%TD*%
D14*
%TO.P, ,1,Pin_1*%
%TO.N,Earth*%
X131300000Y-81300000D03*
%TD*%
D13*
%TO.P,R10,1*%
%TO.N,5V*%
X124597500Y-98500000D03*
%TO.P,R10,2*%
%TO.N,Uart_Rx1*%
X123402500Y-98500000D03*
%TD*%
%TO.P,R12,1*%
%TO.N,Net-(R12-Pad1)*%
X122697500Y-88200000D03*
%TO.P,R12,2*%
%TO.N,SCL_Pad*%
X121502500Y-88200000D03*
%TD*%
D19*
%TO.P,Rx1,1,Pin_1*%
%TO.N,Uart_Rx1*%
X118300000Y-98500000D03*
%TD*%
%TO.P,SDA,1,Pin_1*%
%TO.N,SDA_Pad*%
X118300000Y-85500000D03*
%TD*%
D20*
%TO.P,R13,1*%
%TO.N,Net-(Q2-Pad1)*%
X140600000Y-107700000D03*
%TO.P,R13,2*%
%TO.N,Sevo_ConR*%
X140600000Y-106505000D03*
%TD*%
D13*
%TO.P,R11,1*%
%TO.N,Net-(R11-Pad1)*%
X122797500Y-85600000D03*
%TO.P,R11,2*%
%TO.N,SDA_Pad*%
X121602500Y-85600000D03*
%TD*%
D14*
%TO.P,AilL,1,Pin_1*%
%TO.N,PWM1_5V*%
X125500000Y-72900000D03*
%TD*%
%TO.P, ,1,Pin_1*%
%TO.N,5V*%
X128500000Y-77100000D03*
%TD*%
D12*
%TO.P,Curr,1,Pin_1*%
%TO.N,Current_Pad*%
X143100000Y-107900000D03*
%TD*%
%TO.P,AilL,1,Pin_1*%
%TO.N,PWM1_R*%
X125300000Y-108000000D03*
%TD*%
D19*
%TO.P,Rx3,1,Pin_1*%
%TO.N,Uart_Rx3*%
X118300000Y-82900000D03*
%TD*%
%TO.P,Tx3,1,Pin_1*%
%TO.N,Uart_Tx3*%
X118300000Y-80200000D03*
%TD*%
%TO.P,Tx1,1,Pin_1*%
%TO.N,Uart_Tx1*%
X118300000Y-100900000D03*
%TD*%
%TO.P,SBus,1,Pin_1*%
%TO.N,S_BUS*%
X118300000Y-96100000D03*
%TD*%
D14*
%TO.P, ,1,Pin_1*%
%TO.N,5V*%
X134100000Y-77100000D03*
%TD*%
%TO.P, ,1,Pin_1*%
%TO.N,Earth*%
X127900000Y-104200000D03*
%TD*%
%TO.P,S3,1,Pin_1*%
%TO.N,S3*%
X143100000Y-72900000D03*
%TD*%
%TO.P, ,1,Pin_1*%
%TO.N,5V*%
X125500000Y-77100000D03*
%TD*%
%TO.P,Elv1,1,Pin_1*%
%TO.N,PWM3_5V*%
X131300000Y-72900000D03*
%TD*%
%TO.P, ,1,Pin_1*%
%TO.N,Earth*%
X130600000Y-104200000D03*
%TD*%
D21*
%TO.N,Earth*%
X143000000Y-100900000D03*
X154700000Y-82300000D03*
X149200000Y-87700000D03*
X127900000Y-104200000D03*
X132800000Y-87700000D03*
X125600000Y-95600000D03*
X129700000Y-97200000D03*
X145300000Y-98500000D03*
X130400000Y-85200000D03*
X132200000Y-91300000D03*
X139900000Y-101600000D03*
X138675700Y-82600000D03*
X154700000Y-79500000D03*
X125300000Y-104200000D03*
X125500000Y-81300000D03*
X142304322Y-81526531D03*
X129300000Y-90900000D03*
X133810706Y-104550759D03*
X125700000Y-93600000D03*
X130600000Y-104200000D03*
%TO.N,VDD*%
X150400000Y-90500000D03*
X143934847Y-87849164D03*
X148927611Y-81100000D03*
X137853264Y-100353264D03*
X159700000Y-77300000D03*
X135363207Y-99923589D03*
X144572207Y-90972207D03*
X139244919Y-98390077D03*
X155400000Y-87300000D03*
X146300000Y-75700000D03*
X150400000Y-81200000D03*
%TO.N,Net-(C12-Pad2)*%
X142924529Y-85824529D03*
X148000000Y-85800000D03*
X140698556Y-88180399D03*
%TO.N,Net-(C13-Pad2)*%
X140237201Y-95019339D03*
%TO.N,5V*%
X133700000Y-75800000D03*
X141800000Y-77100000D03*
X122200000Y-101700000D03*
X152924277Y-90731309D03*
X125500000Y-77100000D03*
X159700000Y-80200000D03*
%TO.N,5V_USB*%
X161200000Y-94600000D03*
%TO.N,Net-(Q1-Pad1)*%
X123762928Y-96251299D03*
%TO.N,Uart_Rx1*%
X140699146Y-89179901D03*
X118300000Y-98500000D03*
X137161320Y-92174456D03*
X122900000Y-97500000D03*
%TO.N,GYRO_CS*%
X136202049Y-98851259D03*
X133974300Y-97891290D03*
%TO.N,Net-(R6-Pad1)*%
X145400000Y-102100000D03*
X135915451Y-95052141D03*
X143100000Y-102000000D03*
X138388760Y-97874327D03*
%TO.N,Net-(R11-Pad1)*%
X134891802Y-87441569D03*
%TO.N,Net-(R12-Pad1)*%
X135588434Y-88158303D03*
%TO.N,GYRO_INT*%
X140200000Y-103175700D03*
X137424479Y-98137323D03*
%TO.N,GYRO_SDA*%
X135842866Y-97898452D03*
X133139344Y-100325990D03*
%TO.N,PWM1_R*%
X124500000Y-107600000D03*
%TO.N,PWM2_R*%
X127200000Y-107700000D03*
%TO.N,Current_Pad*%
X128495305Y-92106478D03*
%TO.N,PWM4_3.3V*%
X137898765Y-86409425D03*
X145518318Y-83265538D03*
X133100000Y-92800000D03*
%TO.N,PWM1_3.3V*%
X134120086Y-94564500D03*
X142700000Y-84218674D03*
X147188136Y-76643722D03*
%TO.N,PWM2_3.3V*%
X143500000Y-85000000D03*
X149831309Y-82824277D03*
X136560723Y-93778431D03*
X148900000Y-79600000D03*
X147200000Y-78000000D03*
%TO.N,PWM3_3.3V*%
X139342537Y-88863992D03*
X145926696Y-84571111D03*
X137560185Y-93787436D03*
%TO.N,Uart_Rx3*%
X125400000Y-85700000D03*
X138351902Y-94651401D03*
X122000000Y-84400000D03*
%TO.N,Net-(Q2-Pad1)*%
X139430151Y-107769849D03*
%TO.N,S1*%
X142825000Y-95387000D03*
%TO.N,S2*%
X143798272Y-94213848D03*
%TO.N,S3*%
X143922038Y-93222038D03*
%TO.N,S4*%
X143600000Y-90200000D03*
%TO.N,Uart_Tx6*%
X147800000Y-101400000D03*
X145900000Y-90600000D03*
X135700000Y-110500000D03*
X143439739Y-91793165D03*
X148400000Y-90700000D03*
%TO.N,Uart_Rx6*%
X125800000Y-91800000D03*
X139840627Y-92302986D03*
X129071987Y-89800890D03*
X137223065Y-88000000D03*
X138995469Y-90608735D03*
%TO.N,Uart_Tx1*%
X118300000Y-100900000D03*
X137907335Y-92850156D03*
X140740547Y-90178545D03*
%TO.N,Uart_Tx3*%
X133608533Y-86312345D03*
%TO.N,PWM4_5V*%
X134100000Y-72900000D03*
%TO.N,PWM3_5V*%
X131300000Y-72900000D03*
%TO.N,PWM2_5V*%
X128500000Y-72900000D03*
X129347197Y-71902783D03*
X132700000Y-78981586D03*
%TO.N,PWM1_5V*%
X125500000Y-72900000D03*
%TO.N,PWM3_R*%
X129900000Y-107800000D03*
%TO.N,PWM4_R*%
X135000000Y-107800000D03*
%TO.N,Panic*%
X126422207Y-87677793D03*
%TO.N,Sevo_ConR*%
X139351392Y-94556362D03*
%TO.N,Net-(R15-Pad2)*%
X142630242Y-82515362D03*
X144685465Y-82400000D03*
X132124300Y-89200000D03*
%TD*%
D22*
%TO.N,PWM3_3.3V*%
X136400000Y-91806529D02*
X139342537Y-88863992D01*
X136400000Y-92627251D02*
X136400000Y-91806529D01*
X137560185Y-93787436D02*
X136400000Y-92627251D01*
%TO.N,Net-(R6-Pad1)*%
X135857862Y-95052141D02*
X135915451Y-95052141D01*
X132710003Y-98200000D02*
X135857862Y-95052141D01*
X131600000Y-98200000D02*
X132710003Y-98200000D01*
D23*
%TO.N,Current_Pad*%
X128600000Y-92211173D02*
X128495305Y-92106478D01*
X131500000Y-101100000D02*
X128600000Y-98200000D01*
X136400000Y-105764296D02*
X136400000Y-102200000D01*
X139235704Y-108600000D02*
X136400000Y-105764296D01*
X142400000Y-108600000D02*
X139235704Y-108600000D01*
X136400000Y-102200000D02*
X135300000Y-101100000D01*
X135300000Y-101100000D02*
X131500000Y-101100000D01*
X143100000Y-107900000D02*
X142400000Y-108600000D01*
X128600000Y-98200000D02*
X128600000Y-92211173D01*
%TO.N,GYRO_CS*%
X132605000Y-99400000D02*
X132605000Y-99260590D01*
D22*
X136202049Y-98851259D02*
X134934269Y-98851259D01*
X134934269Y-98851259D02*
X133974300Y-97891290D01*
D23*
X132605000Y-99260590D02*
X133974300Y-97891290D01*
D22*
%TO.N,S4*%
X143224289Y-89824289D02*
X143600000Y-90200000D01*
X143224289Y-87475711D02*
X143224289Y-89824289D01*
X144879523Y-85820477D02*
X143224289Y-87475711D01*
X144879523Y-83665010D02*
X144879523Y-85820477D01*
X144009764Y-74837269D02*
X144009764Y-82795251D01*
X144375720Y-74471313D02*
X144009764Y-74837269D01*
X144375720Y-74424280D02*
X144375720Y-74471313D01*
X145900000Y-72900000D02*
X144375720Y-74424280D01*
%TO.N,S1*%
X143128919Y-86575701D02*
X142412127Y-87292493D01*
X143128943Y-86575701D02*
X143128919Y-86575701D01*
X144175701Y-85528943D02*
X143128943Y-86575701D01*
X144175701Y-84624299D02*
X144175701Y-85528943D01*
X143305943Y-83754541D02*
X144175701Y-84624299D01*
X143305943Y-77650356D02*
X143305943Y-83754541D01*
X141455587Y-75800000D02*
X143305943Y-77650356D01*
X140352967Y-75800000D02*
X141455587Y-75800000D01*
%TO.N,S4*%
X144009764Y-82795251D02*
X144879523Y-83665010D01*
%TO.N,S1*%
X137500000Y-72900000D02*
X137500000Y-72947033D01*
%TO.N,S2*%
X142764038Y-87438272D02*
X142764038Y-93179614D01*
X143274698Y-86927612D02*
X142764038Y-87438272D01*
X143274710Y-86927612D02*
X143274698Y-86927612D01*
X144527612Y-83895412D02*
X144527612Y-85674710D01*
X143657853Y-83025653D02*
X144527612Y-83895412D01*
X143657853Y-76534556D02*
X143657853Y-83025653D01*
X142764038Y-93179614D02*
X143798272Y-94213848D01*
%TO.N,S1*%
X142412127Y-94974127D02*
X142825000Y-95387000D01*
%TO.N,S2*%
X140300000Y-73176703D02*
X143657853Y-76534556D01*
%TO.N,S1*%
X137500000Y-72947033D02*
X140352967Y-75800000D01*
%TO.N,S2*%
X144527612Y-85674710D02*
X143274710Y-86927612D01*
%TO.N,S1*%
X142412127Y-87292493D02*
X142412127Y-94974127D01*
%TO.N,S2*%
X140300000Y-72900000D02*
X140300000Y-73176703D01*
%TO.N,Net-(C12-Pad2)*%
X140698556Y-88180399D02*
X140719601Y-88180399D01*
X142924529Y-85975471D02*
X142924529Y-85824529D01*
X140719601Y-88180399D02*
X142924529Y-85975471D01*
%TO.N,S3*%
X144433549Y-93222038D02*
X143922038Y-93222038D01*
X146600000Y-70700000D02*
X147900000Y-72000000D01*
X146875701Y-90779886D02*
X144433549Y-93222038D01*
X143600000Y-70700000D02*
X146600000Y-70700000D01*
X146875701Y-83796076D02*
X146875701Y-90779886D01*
X143100000Y-71200000D02*
X143600000Y-70700000D01*
X147900000Y-72000000D02*
X147900000Y-82771777D01*
X143100000Y-72900000D02*
X143100000Y-71200000D01*
X147900000Y-82771777D02*
X146875701Y-83796076D01*
%TO.N,PWM2_3.3V*%
X148251911Y-80248089D02*
X148251911Y-81607498D01*
X148900000Y-79600000D02*
X148251911Y-80248089D01*
X149468690Y-82824277D02*
X149831309Y-82824277D01*
X148251911Y-81607498D02*
X149468690Y-82824277D01*
%TO.N,VDD*%
X149027611Y-81200000D02*
X148927611Y-81100000D01*
X150400000Y-81200000D02*
X149027611Y-81200000D01*
%TO.N,Net-(R15-Pad2)*%
X144710465Y-82425000D02*
X144685465Y-82400000D01*
X145962500Y-82425000D02*
X144710465Y-82425000D01*
X139866275Y-85733725D02*
X142630242Y-82969758D01*
X137618156Y-85733725D02*
X139866275Y-85733725D01*
X136200000Y-87400000D02*
X137222341Y-86377659D01*
%TO.N,Earth*%
X141954542Y-83062246D02*
X141954542Y-81876311D01*
X134603840Y-84603840D02*
X140412948Y-84603840D01*
%TO.N,PWM2_5V*%
X134800000Y-79125720D02*
X132844134Y-79125720D01*
X135375720Y-79701440D02*
X134800000Y-79125720D01*
X138754230Y-84251920D02*
X135375720Y-80873410D01*
%TO.N,Earth*%
X140412948Y-84603840D02*
X141954542Y-83062246D01*
%TO.N,PWM3_5V*%
X131300000Y-72947033D02*
X131300000Y-72900000D01*
X138000000Y-78152967D02*
X134772753Y-74925720D01*
%TO.N,Net-(R15-Pad2)*%
X137222341Y-86377659D02*
X137222341Y-86129540D01*
%TO.N,PWM3_5V*%
X138000000Y-83000000D02*
X138000000Y-78152967D01*
X140121432Y-83900000D02*
X138900000Y-83900000D01*
X141250720Y-82770712D02*
X140121432Y-83900000D01*
X141250720Y-78919372D02*
X141250720Y-82770712D01*
X140856348Y-78525000D02*
X141250720Y-78919372D01*
%TO.N,Net-(R15-Pad2)*%
X135800000Y-87400000D02*
X136200000Y-87400000D01*
%TO.N,PWM3_5V*%
X134772753Y-74925720D02*
X133278687Y-74925720D01*
%TO.N,PWM2_5V*%
X135375720Y-80873410D02*
X135375720Y-79701440D01*
X140856348Y-77875000D02*
X141602640Y-78621292D01*
%TO.N,Net-(R15-Pad2)*%
X142630242Y-82969758D02*
X142630242Y-82515362D01*
%TO.N,PWM2_5V*%
X141602640Y-82916470D02*
X140267190Y-84251920D01*
%TO.N,PWM1_3.3V*%
X142534592Y-84218674D02*
X142700000Y-84218674D01*
X134120086Y-94564500D02*
X134120086Y-92633180D01*
%TO.N,PWM2_5V*%
X140237500Y-77875000D02*
X140856348Y-77875000D01*
%TO.N,PWM3_5V*%
X133278687Y-74925720D02*
X131300000Y-72947033D01*
X138900000Y-83900000D02*
X138000000Y-83000000D01*
%TO.N,PWM1_3.3V*%
X134120086Y-92633180D02*
X142534592Y-84218674D01*
%TO.N,PWM2_5V*%
X132844134Y-79125720D02*
X132700000Y-78981586D01*
%TO.N,Net-(R15-Pad2)*%
X137222341Y-86129540D02*
X137618156Y-85733725D01*
%TO.N,PWM3_5V*%
X140237500Y-78525000D02*
X140856348Y-78525000D01*
%TO.N,Earth*%
X141954542Y-81876311D02*
X142304322Y-81526531D01*
%TO.N,PWM2_5V*%
X141602640Y-78621292D02*
X141602640Y-82916470D01*
X140267190Y-84251920D02*
X138754230Y-84251920D01*
%TO.N,PWM4_3.3V*%
X146390810Y-83265538D02*
X145518318Y-83265538D01*
X146975720Y-82680628D02*
X146390810Y-83265538D01*
X146975720Y-79569372D02*
X146975720Y-82680628D01*
X146581348Y-79175000D02*
X146975720Y-79569372D01*
X145962500Y-79175000D02*
X146581348Y-79175000D01*
%TO.N,Earth*%
X149200000Y-86800000D02*
X149200000Y-87700000D01*
X145100000Y-99500000D02*
X145100000Y-98700000D01*
D23*
X133300000Y-104200000D02*
X130600000Y-104200000D01*
D22*
X131300000Y-81300000D02*
X128500000Y-81300000D01*
X125500000Y-81300000D02*
X128500000Y-81300000D01*
X140600000Y-100900000D02*
X139900000Y-101600000D01*
X129700000Y-91300000D02*
X129300000Y-90900000D01*
X138675700Y-82600000D02*
X140062500Y-82600000D01*
X136095000Y-86500000D02*
X136095000Y-86095000D01*
X132800000Y-87700000D02*
X130400000Y-85300000D01*
X131300000Y-81300000D02*
X134100000Y-81300000D01*
X145100000Y-98700000D02*
X145300000Y-98500000D01*
X132200000Y-91300000D02*
X129700000Y-91300000D01*
D23*
X133459947Y-104200000D02*
X133810706Y-104550759D01*
D22*
X125700000Y-93600000D02*
X125600000Y-93700000D01*
X143000000Y-100900000D02*
X140600000Y-100900000D01*
X130405000Y-98200000D02*
X130405000Y-97905000D01*
X154700000Y-79500000D02*
X154700000Y-82300000D01*
X136095000Y-86095000D02*
X134603840Y-84603840D01*
X131300000Y-81300000D02*
X134603840Y-84603840D01*
X125600000Y-93700000D02*
X125600000Y-95600000D01*
X140062500Y-82600000D02*
X140237500Y-82425000D01*
X130400000Y-85300000D02*
X130400000Y-85200000D01*
D23*
X133300000Y-104200000D02*
X133459947Y-104200000D01*
D22*
X130405000Y-97905000D02*
X129700000Y-97200000D01*
%TO.N,VDD*%
X144949280Y-76830628D02*
X145343652Y-77225000D01*
X139244919Y-98390077D02*
X139244919Y-98961609D01*
X139244919Y-98961609D02*
X137853264Y-100353264D01*
X155400000Y-87300000D02*
X152200000Y-90500000D01*
X152200000Y-90500000D02*
X150400000Y-90500000D01*
X145343652Y-77225000D02*
X145962500Y-77225000D01*
X146300000Y-75700000D02*
X145568652Y-75700000D01*
X144582349Y-88496666D02*
X144582349Y-90962065D01*
X145568652Y-75700000D02*
X144949280Y-76319372D01*
X133800000Y-99400000D02*
X134839618Y-99400000D01*
X144582349Y-90962065D02*
X144572207Y-90972207D01*
X144949280Y-76319372D02*
X144949280Y-76830628D01*
X134839618Y-99400000D02*
X135363207Y-99923589D01*
X143934847Y-87849164D02*
X144582349Y-88496666D01*
%TO.N,Net-(C12-Pad2)*%
X148065000Y-86800000D02*
X148065000Y-85865000D01*
X148065000Y-85865000D02*
X148000000Y-85800000D01*
%TO.N,Net-(C13-Pad2)*%
X140237201Y-95772201D02*
X140237201Y-95019339D01*
X143965000Y-99500000D02*
X140237201Y-95772201D01*
%TO.N,5V*%
X155221411Y-90731309D02*
X152924277Y-90731309D01*
X141675000Y-77225000D02*
X140237500Y-77225000D01*
X124597500Y-99302500D02*
X122200000Y-101700000D01*
X141800000Y-77100000D02*
X141675000Y-77225000D01*
X128500000Y-77100000D02*
X125500000Y-77100000D01*
X124597500Y-98500000D02*
X124597500Y-99302500D01*
X159700000Y-80200000D02*
X159700000Y-86252720D01*
X159700000Y-86252720D02*
X155221411Y-90731309D01*
X131300000Y-77100000D02*
X128500000Y-77100000D01*
X134100000Y-77100000D02*
X131300000Y-77100000D01*
%TO.N,5V_USB*%
X154800000Y-101000000D02*
X161200000Y-94600000D01*
X153497500Y-101000000D02*
X154800000Y-101000000D01*
%TO.N,Net-(Q1-Pad1)*%
X122395000Y-96100000D02*
X123611629Y-96100000D01*
X123611629Y-96100000D02*
X123762928Y-96251299D01*
%TO.N,Uart_Rx1*%
X139800000Y-90079047D02*
X139800000Y-91306758D01*
X140699146Y-89179901D02*
X139800000Y-90079047D01*
X140120517Y-92978697D02*
X139560737Y-92978697D01*
X137209543Y-92126233D02*
X137161320Y-92174456D01*
X123402500Y-98002500D02*
X122900000Y-97500000D01*
X140516338Y-92582876D02*
X140120517Y-92978697D01*
X139800000Y-91306758D02*
X140516338Y-92023096D01*
X140516338Y-92023096D02*
X140516338Y-92582876D01*
X123402500Y-98500000D02*
X123402500Y-98002500D01*
X138708273Y-92126233D02*
X137209543Y-92126233D01*
X118300000Y-98500000D02*
X123402500Y-98500000D01*
X139560737Y-92978697D02*
X138708273Y-92126233D01*
%TO.N,Net-(R6-Pad1)*%
X136900000Y-100600000D02*
X136900000Y-100350942D01*
X138388760Y-98862182D02*
X138388760Y-97874327D01*
X142824299Y-102275701D02*
X138575701Y-102275701D01*
X145400000Y-102100000D02*
X151202500Y-102100000D01*
X151202500Y-102100000D02*
X152302500Y-101000000D01*
X143100000Y-102000000D02*
X142824299Y-102275701D01*
X138575701Y-102275701D02*
X136900000Y-100600000D01*
X136900000Y-100350942D02*
X138388760Y-98862182D01*
%TO.N,S_BUS*%
X118300000Y-96100000D02*
X121200000Y-96100000D01*
%TO.N,Net-(R11-Pad1)*%
X130255587Y-84000000D02*
X133697156Y-87441569D01*
X133697156Y-87441569D02*
X134891802Y-87441569D01*
X124397500Y-84000000D02*
X130255587Y-84000000D01*
X122797500Y-85600000D02*
X124397500Y-84000000D01*
%TO.N,SDA_Pad*%
X118300000Y-85500000D02*
X121502500Y-85500000D01*
X121502500Y-85500000D02*
X121602500Y-85600000D01*
%TO.N,Net-(R12-Pad1)*%
X125100000Y-84500000D02*
X128644413Y-84500000D01*
X122697500Y-88200000D02*
X122697500Y-86902500D01*
X122697500Y-86902500D02*
X125100000Y-84500000D01*
X135371036Y-88375701D02*
X135588434Y-88158303D01*
X128644413Y-84500000D02*
X132520114Y-88375701D01*
X132520114Y-88375701D02*
X135371036Y-88375701D01*
%TO.N,SCL_Pad*%
X118300000Y-88200000D02*
X121502500Y-88200000D01*
%TO.N,GYRO_INT*%
X137279285Y-98293770D02*
X137279285Y-99473980D01*
X138978023Y-103175700D02*
X140200000Y-103175700D01*
X137073140Y-99680124D02*
X136427612Y-100325653D01*
X137279285Y-99473980D02*
X137073140Y-99680124D01*
X136427612Y-100625289D02*
X138978023Y-103175700D01*
X136427612Y-100325653D02*
X136427612Y-100625289D01*
X137267574Y-98282059D02*
X137279285Y-98293770D01*
%TO.N,GYRO_SDA*%
X136748778Y-98404365D02*
X136748778Y-98417209D01*
X136927374Y-98595805D02*
X136927374Y-99328213D01*
X136927374Y-99328213D02*
X135656298Y-100599289D01*
X133560722Y-100325990D02*
X133139344Y-100325990D01*
X133834021Y-100599289D02*
X133560722Y-100325990D01*
X136242865Y-97898452D02*
X136748778Y-98404365D01*
X135656298Y-100599289D02*
X133834021Y-100599289D01*
X136748778Y-98417209D02*
X136927374Y-98595805D01*
X135842866Y-97898452D02*
X136242865Y-97898452D01*
%TO.N,PWM4_3.3V*%
X137975701Y-88279887D02*
X137975701Y-86486361D01*
X137975701Y-86486361D02*
X137898765Y-86409425D01*
X133100000Y-92800000D02*
X133455588Y-92800000D01*
X133455588Y-92800000D02*
X137975701Y-88279887D01*
%TO.N,PWM1_3.3V*%
X145962500Y-76575000D02*
X146031222Y-76643722D01*
X146031222Y-76643722D02*
X147188136Y-76643722D01*
%TO.N,PWM2_3.3V*%
X135373034Y-92590742D02*
X136560723Y-93778431D01*
X142250943Y-85000000D02*
X135373034Y-91877909D01*
X145962500Y-77875000D02*
X147075000Y-77875000D01*
X135373034Y-91877909D02*
X135373034Y-92590742D01*
X147075000Y-77875000D02*
X147200000Y-78000000D01*
X143500000Y-85000000D02*
X142250943Y-85000000D01*
%TO.N,PWM3_3.3V*%
X147399000Y-82775099D02*
X145926696Y-84247403D01*
X145926696Y-84247403D02*
X145926696Y-84571111D01*
X147399000Y-79342652D02*
X147399000Y-82775099D01*
X145962500Y-78525000D02*
X146581348Y-78525000D01*
X146581348Y-78525000D02*
X147399000Y-79342652D01*
%TO.N,Uart_Rx3*%
X132844413Y-95500000D02*
X127500000Y-90155587D01*
X120500000Y-82900000D02*
X122000000Y-84400000D01*
X138351902Y-94651401D02*
X136478106Y-94651401D01*
X127500000Y-90155587D02*
X127500000Y-87800000D01*
X135500000Y-94300000D02*
X134300000Y-95500000D01*
X136478106Y-94651401D02*
X136126705Y-94300000D01*
X118300000Y-82900000D02*
X120500000Y-82900000D01*
X127500000Y-87800000D02*
X125400000Y-85700000D01*
X134300000Y-95500000D02*
X132844413Y-95500000D01*
X136126705Y-94300000D02*
X135500000Y-94300000D01*
%TO.N,Net-(Q2-Pad1)*%
X140530151Y-107769849D02*
X139430151Y-107769849D01*
X140600000Y-107700000D02*
X140530151Y-107769849D01*
%TO.N,Uart_Tx6*%
X144706835Y-91793165D02*
X145900000Y-90600000D01*
X116274280Y-107774280D02*
X116274280Y-95278687D01*
X119000000Y-110500000D02*
X116274280Y-107774280D01*
X116274280Y-95278687D02*
X118152967Y-93400000D01*
X143439739Y-91793165D02*
X144706835Y-91793165D01*
X118152967Y-93400000D02*
X118300000Y-93400000D01*
X148400000Y-90700000D02*
X148400000Y-100800000D01*
X148400000Y-100800000D02*
X147800000Y-101400000D01*
X135700000Y-110500000D02*
X119000000Y-110500000D01*
%TO.N,Uart_Rx6*%
X118300000Y-90800000D02*
X124800000Y-90800000D01*
X137223065Y-88021348D02*
X137223065Y-88000000D01*
X138995469Y-91457828D02*
X139840627Y-92302986D01*
X138995469Y-90608735D02*
X138995469Y-91457828D01*
X135120114Y-90124299D02*
X137223065Y-88021348D01*
X124800000Y-90800000D02*
X125800000Y-91800000D01*
X129395396Y-90124299D02*
X135120114Y-90124299D01*
X129071987Y-89800890D02*
X129395396Y-90124299D01*
%TO.N,Uart_Tx1*%
X140740547Y-90178545D02*
X140868249Y-90306247D01*
X139208826Y-93124463D02*
X138934518Y-92850156D01*
X138934518Y-92850156D02*
X137907335Y-92850156D01*
X140868249Y-92728643D02*
X140266283Y-93330608D01*
X140868249Y-90306247D02*
X140868249Y-92728643D01*
X140266283Y-93330608D02*
X139414970Y-93330608D01*
X139414970Y-93330608D02*
X139208826Y-93124463D01*
%TO.N,Uart_Tx3*%
X133608533Y-85908533D02*
X133608533Y-86312345D01*
X118447033Y-80200000D02*
X121647033Y-83400000D01*
X121647033Y-83400000D02*
X131100000Y-83400000D01*
X131100000Y-83400000D02*
X133608533Y-85908533D01*
X118300000Y-80200000D02*
X118447033Y-80200000D01*
%TO.N,PWM4_5V*%
X140237500Y-79175000D02*
X139618652Y-79175000D01*
X139618652Y-79175000D02*
X134100000Y-73656348D01*
X134100000Y-73656348D02*
X134100000Y-72900000D01*
%TO.N,PWM2_5V*%
X128500000Y-72749980D02*
X129347197Y-71902783D01*
X128500000Y-73000000D02*
X128500000Y-72900000D01*
X128500000Y-72900000D02*
X128500000Y-72749980D01*
%TO.N,PWM1_5V*%
X135375720Y-71328687D02*
X134921313Y-70874280D01*
X140237500Y-76575000D02*
X138327967Y-76575000D01*
X134921313Y-70874280D02*
X127525720Y-70874280D01*
X135375720Y-73622753D02*
X135375720Y-71328687D01*
X127525720Y-70874280D02*
X125500000Y-72900000D01*
X138327967Y-76575000D02*
X135375720Y-73622753D01*
%TO.N,PWM4_R*%
X135000000Y-107800000D02*
X134800000Y-108000000D01*
X134800000Y-108000000D02*
X133300000Y-108000000D01*
D23*
%TO.N,Panic*%
X126524501Y-97224501D02*
X126524501Y-87780087D01*
X139974520Y-109974520D02*
X135600000Y-105600000D01*
X143941527Y-109974520D02*
X139974520Y-109974520D01*
X126524501Y-87780087D02*
X126422207Y-87677793D01*
X134850489Y-101549511D02*
X130849511Y-101549511D01*
X130849511Y-101549511D02*
X126524501Y-97224501D01*
X145800000Y-108116047D02*
X143941527Y-109974520D01*
X135600000Y-102299022D02*
X134850489Y-101549511D01*
X145800000Y-107900000D02*
X145800000Y-108116047D01*
X135600000Y-105600000D02*
X135600000Y-102299022D01*
D22*
%TO.N,Sevo_ConR*%
X139348538Y-94559216D02*
X139351392Y-94556362D01*
X139348538Y-96292951D02*
X139348538Y-94559216D01*
X144075701Y-101020114D02*
X139348538Y-96292951D01*
X144075701Y-103029299D02*
X144075701Y-101020114D01*
X140600000Y-106505000D02*
X144075701Y-103029299D01*
%TO.N,Net-(R15-Pad2)*%
X136548089Y-88148089D02*
X136548089Y-88154233D01*
X136548089Y-88154233D02*
X135502322Y-89200000D01*
X135800000Y-87394180D02*
X135800000Y-87400000D01*
X135800000Y-87400000D02*
X136548089Y-88148089D01*
X135502322Y-89200000D02*
X132124300Y-89200000D01*
X134900000Y-86500000D02*
X134905820Y-86500000D01*
X134905820Y-86500000D02*
X135800000Y-87394180D01*
%TD*%
M02*
