%TF.GenerationSoftware,KiCad,Pcbnew,(6.0.1)*%
%TF.CreationDate,2022-08-29T10:58:40+03:00*%
%TF.ProjectId,flight controller,666c6967-6874-4206-936f-6e74726f6c6c,rev?*%
%TF.SameCoordinates,Original*%
%TF.FileFunction,Paste,Bot*%
%TF.FilePolarity,Positive*%
%FSLAX46Y46*%
G04 Gerber Fmt 4.6, Leading zero omitted, Abs format (unit mm)*
G04 Created by KiCad (PCBNEW (6.0.1)) date 2022-08-29 10:58:40*
%MOMM*%
%LPD*%
G01*
G04 APERTURE LIST*
G04 Aperture macros list*
%AMRoundRect*
0 Rectangle with rounded corners*
0 $1 Rounding radius*
0 $2 $3 $4 $5 $6 $7 $8 $9 X,Y pos of 4 corners*
0 Add a 4 corners polygon primitive as box body*
4,1,4,$2,$3,$4,$5,$6,$7,$8,$9,$2,$3,0*
0 Add four circle primitives for the rounded corners*
1,1,$1+$1,$2,$3*
1,1,$1+$1,$4,$5*
1,1,$1+$1,$6,$7*
1,1,$1+$1,$8,$9*
0 Add four rect primitives between the rounded corners*
20,1,$1+$1,$2,$3,$4,$5,0*
20,1,$1+$1,$4,$5,$6,$7,0*
20,1,$1+$1,$6,$7,$8,$9,0*
20,1,$1+$1,$8,$9,$2,$3,0*%
G04 Aperture macros list end*
%ADD10RoundRect,0.500000X-0.500000X-1.250000X0.500000X-1.250000X0.500000X1.250000X-0.500000X1.250000X0*%
%ADD11RoundRect,0.160000X0.197500X0.160000X-0.197500X0.160000X-0.197500X-0.160000X0.197500X-0.160000X0*%
%ADD12RoundRect,0.500000X0.500000X1.250000X-0.500000X1.250000X-0.500000X-1.250000X0.500000X-1.250000X0*%
%ADD13RoundRect,0.160000X-0.197500X-0.160000X0.197500X-0.160000X0.197500X0.160000X-0.197500X0.160000X0*%
%ADD14RoundRect,0.500000X1.250000X-0.500000X1.250000X0.500000X-1.250000X0.500000X-1.250000X-0.500000X0*%
%ADD15RoundRect,0.155000X0.212500X0.155000X-0.212500X0.155000X-0.212500X-0.155000X0.212500X-0.155000X0*%
%ADD16RoundRect,0.100000X0.637500X0.100000X-0.637500X0.100000X-0.637500X-0.100000X0.637500X-0.100000X0*%
%ADD17RoundRect,0.500000X-1.250000X0.500000X-1.250000X-0.500000X1.250000X-0.500000X1.250000X0.500000X0*%
%ADD18RoundRect,0.160000X0.160000X-0.197500X0.160000X0.197500X-0.160000X0.197500X-0.160000X-0.197500X0*%
G04 APERTURE END LIST*
D10*
%TO.C,Elv2*%
X133300000Y-108000000D03*
%TD*%
%TO.C,Panic*%
X145800000Y-107900000D03*
%TD*%
D11*
%TO.C,R3*%
X133800000Y-99400000D03*
X132605000Y-99400000D03*
%TD*%
D12*
%TO.C,Elv2*%
X134100000Y-72900000D03*
%TD*%
%TO.C,S4*%
X145900000Y-72900000D03*
%TD*%
D13*
%TO.C,R9*%
X121200000Y-96100000D03*
X122395000Y-96100000D03*
%TD*%
D14*
%TO.C,3.3V*%
X159700000Y-77300000D03*
%TD*%
D15*
%TO.C,C12*%
X149200000Y-86800000D03*
X148065000Y-86800000D03*
%TD*%
D12*
%TO.C,S1*%
X137500000Y-72900000D03*
%TD*%
D16*
%TO.C,U4*%
X145962500Y-76575000D03*
X145962500Y-77225000D03*
X145962500Y-77875000D03*
X145962500Y-78525000D03*
X145962500Y-79175000D03*
X145962500Y-79825000D03*
X145962500Y-80475000D03*
X145962500Y-81125000D03*
X145962500Y-81775000D03*
X145962500Y-82425000D03*
X140237500Y-82425000D03*
X140237500Y-81775000D03*
X140237500Y-81125000D03*
X140237500Y-80475000D03*
X140237500Y-79825000D03*
X140237500Y-79175000D03*
X140237500Y-78525000D03*
X140237500Y-77875000D03*
X140237500Y-77225000D03*
X140237500Y-76575000D03*
%TD*%
D12*
%TO.C, *%
X128500000Y-81300000D03*
%TD*%
%TO.C,AilR*%
X128500000Y-72900000D03*
%TD*%
D17*
%TO.C,SCL*%
X118300000Y-88200000D03*
%TD*%
D12*
%TO.C, *%
X133300000Y-104200000D03*
%TD*%
%TO.C,  *%
X125300000Y-104200000D03*
%TD*%
D11*
%TO.C,R6*%
X131600000Y-98200000D03*
X130405000Y-98200000D03*
%TD*%
D15*
%TO.C,C13*%
X145100000Y-99500000D03*
X143965000Y-99500000D03*
%TD*%
D14*
%TO.C,GND*%
X154700000Y-82300000D03*
%TD*%
D11*
%TO.C,R15*%
X136095000Y-86500000D03*
X134900000Y-86500000D03*
%TD*%
D12*
%TO.C,S2*%
X140300000Y-72900000D03*
%TD*%
D17*
%TO.C,Rx6*%
X118300000Y-90800000D03*
%TD*%
D12*
%TO.C, *%
X134100000Y-81300000D03*
%TD*%
%TO.C, *%
X131300000Y-77100000D03*
%TD*%
D10*
%TO.C,AilR*%
X127900000Y-108000000D03*
%TD*%
D12*
%TO.C, *%
X125500000Y-81300000D03*
%TD*%
D13*
%TO.C,R7*%
X152302500Y-101000000D03*
X153497500Y-101000000D03*
%TD*%
D14*
%TO.C,5V*%
X159700000Y-80200000D03*
%TD*%
%TO.C,GND*%
X154700000Y-79500000D03*
%TD*%
D10*
%TO.C,Elv1*%
X130600000Y-108000000D03*
%TD*%
D17*
%TO.C,Tx6*%
X118300000Y-93400000D03*
%TD*%
D12*
%TO.C, *%
X131300000Y-81300000D03*
%TD*%
D11*
%TO.C,R10*%
X124597500Y-98500000D03*
X123402500Y-98500000D03*
%TD*%
%TO.C,R12*%
X122697500Y-88200000D03*
X121502500Y-88200000D03*
%TD*%
D17*
%TO.C,Rx1*%
X118300000Y-98500000D03*
%TD*%
%TO.C,SDA*%
X118300000Y-85500000D03*
%TD*%
D18*
%TO.C,R13*%
X140600000Y-107700000D03*
X140600000Y-106505000D03*
%TD*%
D11*
%TO.C,R11*%
X122797500Y-85600000D03*
X121602500Y-85600000D03*
%TD*%
D12*
%TO.C,AilL*%
X125500000Y-72900000D03*
%TD*%
%TO.C, *%
X128500000Y-77100000D03*
%TD*%
D10*
%TO.C,Curr*%
X143100000Y-107900000D03*
%TD*%
%TO.C,AilL*%
X125300000Y-108000000D03*
%TD*%
D17*
%TO.C,Rx3*%
X118300000Y-82900000D03*
%TD*%
%TO.C,Tx3*%
X118300000Y-80200000D03*
%TD*%
%TO.C,Tx1*%
X118300000Y-100900000D03*
%TD*%
%TO.C,SBus*%
X118300000Y-96100000D03*
%TD*%
D12*
%TO.C, *%
X134100000Y-77100000D03*
%TD*%
%TO.C, *%
X127900000Y-104200000D03*
%TD*%
%TO.C,S3*%
X143100000Y-72900000D03*
%TD*%
%TO.C, *%
X125500000Y-77100000D03*
%TD*%
%TO.C,Elv1*%
X131300000Y-72900000D03*
%TD*%
%TO.C, *%
X130600000Y-104200000D03*
%TD*%
M02*
