M48
; DRILL file {KiCad (6.0.1)} date Mon Aug 29 10:58:43 2022
; FORMAT={-:-/ absolute / metric / decimal}
; #@! TF.CreationDate,2022-08-29T10:58:43+03:00
; #@! TF.GenerationSoftware,Kicad,Pcbnew,(6.0.1)
; #@! TF.FileFunction,Plated,1,2,PTH
FMAT,2
METRIC
; #@! TA.AperFunction,Plated,PTH,ViaDrill
T1C0.400
; #@! TA.AperFunction,Plated,PTH,ComponentDrill
T2C0.600
; #@! TA.AperFunction,Plated,PTH,ComponentDrill
T3C0.850
%
G90
G05
T1
X118.3Y-98.5
X118.3Y-100.9
X122.0Y-84.4
X122.2Y-101.7
X122.9Y-97.5
X123.763Y-96.251
X124.5Y-107.6
X125.3Y-104.2
X125.4Y-85.7
X125.5Y-72.9
X125.5Y-77.1
X125.5Y-81.3
X125.6Y-95.6
X125.7Y-93.6
X125.8Y-91.8
X126.422Y-87.678
X127.2Y-107.7
X127.9Y-104.2
X128.495Y-92.106
X128.5Y-72.9
X129.072Y-89.801
X129.3Y-90.9
X129.347Y-71.903
X129.7Y-97.2
X129.9Y-107.8
X130.4Y-85.2
X130.6Y-104.2
X131.3Y-72.9
X132.124Y-89.2
X132.2Y-91.3
X132.7Y-78.982
X132.8Y-87.7
X133.1Y-92.8
X133.139Y-100.326
X133.609Y-86.312
X133.7Y-75.8
X133.811Y-104.551
X133.974Y-97.891
X134.1Y-72.9
X134.12Y-94.564
X134.892Y-87.442
X135.0Y-107.8
X135.363Y-99.924
X135.588Y-88.158
X135.7Y-110.5
X135.843Y-97.898
X135.915Y-95.052
X136.202Y-98.851
X136.561Y-93.778
X137.161Y-92.174
X137.223Y-88.0
X137.424Y-98.137
X137.56Y-93.787
X137.853Y-100.353
X137.899Y-86.409
X137.907Y-92.85
X138.352Y-94.651
X138.389Y-97.874
X138.676Y-82.6
X138.995Y-90.609
X139.245Y-98.39
X139.343Y-88.864
X139.351Y-94.556
X139.43Y-107.77
X139.841Y-92.303
X139.9Y-101.6
X140.2Y-103.176
X140.237Y-95.019
X140.699Y-88.18
X140.699Y-89.18
X140.741Y-90.179
X141.8Y-77.1
X142.304Y-81.527
X142.63Y-82.515
X142.7Y-84.219
X142.825Y-95.387
X142.925Y-85.825
X143.0Y-100.9
X143.1Y-102.0
X143.44Y-91.793
X143.5Y-85.0
X143.6Y-90.2
X143.798Y-94.214
X143.922Y-93.222
X143.935Y-87.849
X144.572Y-90.972
X144.685Y-82.4
X145.3Y-98.5
X145.4Y-102.1
X145.518Y-83.266
X145.9Y-90.6
X145.927Y-84.571
X146.3Y-75.7
X147.188Y-76.644
X147.2Y-78.0
X147.8Y-101.4
X148.0Y-85.8
X148.4Y-90.7
X148.9Y-79.6
X148.928Y-81.1
X149.2Y-87.7
X149.831Y-82.824
X150.4Y-81.2
X150.4Y-90.5
X152.924Y-90.731
X154.7Y-79.5
X154.7Y-82.3
X155.4Y-87.3
X159.7Y-77.3
X159.7Y-80.2
X161.2Y-94.6
T3
X158.637Y-85.9
X158.637Y-90.9
T2
G00X160.987Y-84.9
M15
G01X161.688Y-84.9
M16
G05
G00X161.688Y-91.9
M15
G01X160.987Y-91.9
M16
G05
T0
M30
